<?xml version="1.0" encoding="utf-8" standalone="no"?>
<!DOCTYPE svg PUBLIC "-//W3C//DTD SVG 1.1//EN"
  "http://www.w3.org/Graphics/SVG/1.1/DTD/svg11.dtd">
<svg xmlns:xlink="http://www.w3.org/1999/xlink" width="399.209375pt" height="275.035625pt" viewBox="0 0 399.209375 275.035625" xmlns="http://www.w3.org/2000/svg" version="1.1">
 <metadata>
  <rdf:RDF xmlns:dc="http://purl.org/dc/elements/1.1/" xmlns:cc="http://creativecommons.org/ns#" xmlns:rdf="http://www.w3.org/1999/02/22-rdf-syntax-ns#">
   <cc:Work>
    <dc:type rdf:resource="http://purl.org/dc/dcmitype/StillImage"/>
    <dc:date>2022-04-11T23:08:43.667399</dc:date>
    <dc:format>image/svg+xml</dc:format>
    <dc:creator>
     <cc:Agent>
      <dc:title>Matplotlib v3.5.1, https://matplotlib.org/</dc:title>
     </cc:Agent>
    </dc:creator>
   </cc:Work>
  </rdf:RDF>
 </metadata>
 <defs>
  <style type="text/css">*{stroke-linejoin: round; stroke-linecap: butt}</style>
 </defs>
 <g id="figure_1">
  <g id="patch_1">
   <path d="M 0 275.035625 
L 399.209375 275.035625 
L 399.209375 0 
L 0 0 
L 0 275.035625 
z
" style="fill: none"/>
  </g>
  <g id="axes_1">
   <g id="patch_2">
    <path d="M 57.209375 238.835625 
L 392.009375 238.835625 
L 392.009375 21.395625 
L 57.209375 21.395625 
z
" style="fill: #ffffff"/>
   </g>
   <g id="matplotlib.axis_1">
    <g id="xtick_1">
     <g id="line2d_1">
      <defs>
       <path id="mdbe603fdd1" d="M 0 0 
L 0 3.5 
" style="stroke: #000000; stroke-width: 0.8"/>
      </defs>
      <g>
       <use xlink:href="#mdbe603fdd1" x="72.427557" y="238.835625" style="stroke: #000000; stroke-width: 0.8"/>
      </g>
     </g>
     <g id="text_1">
      <!-- 0 -->
      <g transform="translate(69.927557 252.665312)scale(0.1 -0.1)">
       <defs>
        <path id="STIXGeneral-Regular-30" d="M 3046 2112 
Q 3046 1683 2963 1302 
Q 2880 922 2717 602 
Q 2554 282 2266 96 
Q 1978 -90 1600 -90 
Q 1210 -90 915 108 
Q 621 307 461 640 
Q 301 973 227 1350 
Q 154 1728 154 2150 
Q 154 2746 301 3222 
Q 448 3699 790 4012 
Q 1133 4326 1626 4326 
Q 2253 4326 2649 3712 
Q 3046 3098 3046 2112 
z
M 2432 2080 
Q 2432 3091 2217 3625 
Q 2003 4160 1587 4160 
Q 1190 4160 979 3622 
Q 768 3085 768 2106 
Q 768 1120 979 598 
Q 1190 77 1600 77 
Q 2003 77 2217 598 
Q 2432 1120 2432 2080 
z
" transform="scale(0.015625)"/>
       </defs>
       <use xlink:href="#STIXGeneral-Regular-30"/>
      </g>
     </g>
    </g>
    <g id="xtick_2">
     <g id="line2d_2">
      <g>
       <use xlink:href="#mdbe603fdd1" x="136.504112" y="238.835625" style="stroke: #000000; stroke-width: 0.8"/>
      </g>
     </g>
     <g id="text_2">
      <!-- 20 -->
      <g transform="translate(131.504112 252.665312)scale(0.1 -0.1)">
       <defs>
        <path id="STIXGeneral-Regular-32" d="M 3034 877 
L 2688 0 
L 186 0 
L 186 77 
L 1325 1286 
Q 1773 1754 1965 2144 
Q 2157 2534 2157 2950 
Q 2157 3379 1920 3616 
Q 1683 3853 1267 3853 
Q 922 3853 720 3673 
Q 518 3494 326 3021 
L 192 3053 
Q 301 3648 630 3987 
Q 960 4326 1523 4326 
Q 2054 4326 2380 4006 
Q 2707 3686 2707 3200 
Q 2707 2477 1888 1613 
L 832 486 
L 2330 486 
Q 2541 486 2665 569 
Q 2790 653 2944 915 
L 3034 877 
z
" transform="scale(0.015625)"/>
       </defs>
       <use xlink:href="#STIXGeneral-Regular-32"/>
       <use xlink:href="#STIXGeneral-Regular-30" x="49.999985"/>
      </g>
     </g>
    </g>
    <g id="xtick_3">
     <g id="line2d_3">
      <g>
       <use xlink:href="#mdbe603fdd1" x="200.580667" y="238.835625" style="stroke: #000000; stroke-width: 0.8"/>
      </g>
     </g>
     <g id="text_3">
      <!-- 40 -->
      <g transform="translate(195.580667 252.665312)scale(0.1 -0.1)">
       <defs>
        <path id="STIXGeneral-Regular-34" d="M 3027 1069 
L 2368 1069 
L 2368 0 
L 1869 0 
L 1869 1069 
L 77 1069 
L 77 1478 
L 2086 4326 
L 2368 4326 
L 2368 1478 
L 3027 1478 
L 3027 1069 
z
M 1869 1478 
L 1869 3674 
L 333 1478 
L 1869 1478 
z
" transform="scale(0.015625)"/>
       </defs>
       <use xlink:href="#STIXGeneral-Regular-34"/>
       <use xlink:href="#STIXGeneral-Regular-30" x="49.999985"/>
      </g>
     </g>
    </g>
    <g id="xtick_4">
     <g id="line2d_4">
      <g>
       <use xlink:href="#mdbe603fdd1" x="264.657222" y="238.835625" style="stroke: #000000; stroke-width: 0.8"/>
      </g>
     </g>
     <g id="text_4">
      <!-- 60 -->
      <g transform="translate(259.657222 252.665312)scale(0.1 -0.1)">
       <defs>
        <path id="STIXGeneral-Regular-36" d="M 2854 4378 
L 2867 4275 
Q 2112 4154 1606 3664 
Q 1101 3174 973 2451 
Q 1344 2739 1786 2739 
Q 2349 2739 2672 2380 
Q 2995 2022 2995 1402 
Q 2995 774 2669 378 
Q 2291 -90 1651 -90 
Q 870 -90 518 557 
Q 218 1107 218 1786 
Q 218 2835 915 3552 
Q 1312 3962 1731 4131 
Q 2150 4301 2854 4378 
z
M 2419 1203 
Q 2419 2445 1555 2445 
Q 1235 2445 1024 2275 
Q 813 2106 813 1702 
Q 813 954 1046 522 
Q 1280 90 1722 90 
Q 2061 90 2240 394 
Q 2419 698 2419 1203 
z
" transform="scale(0.015625)"/>
       </defs>
       <use xlink:href="#STIXGeneral-Regular-36"/>
       <use xlink:href="#STIXGeneral-Regular-30" x="49.999985"/>
      </g>
     </g>
    </g>
    <g id="xtick_5">
     <g id="line2d_5">
      <g>
       <use xlink:href="#mdbe603fdd1" x="328.733777" y="238.835625" style="stroke: #000000; stroke-width: 0.8"/>
      </g>
     </g>
     <g id="text_5">
      <!-- 80 -->
      <g transform="translate(323.733777 252.665312)scale(0.1 -0.1)">
       <defs>
        <path id="STIXGeneral-Regular-38" d="M 2848 992 
Q 2848 499 2505 204 
Q 2163 -90 1587 -90 
Q 1050 -90 704 204 
Q 358 499 358 954 
Q 358 1293 524 1533 
Q 691 1773 1190 2125 
Q 710 2522 553 2765 
Q 397 3008 397 3328 
Q 397 3782 745 4054 
Q 1094 4326 1638 4326 
Q 2106 4326 2410 4060 
Q 2714 3795 2714 3411 
Q 2714 3059 2531 2848 
Q 2349 2637 1856 2374 
Q 2432 1990 2640 1689 
Q 2848 1389 2848 992 
z
M 2272 3411 
Q 2272 3744 2086 3945 
Q 1901 4147 1574 4147 
Q 1248 4147 1059 3977 
Q 870 3808 870 3513 
Q 870 3219 1059 2979 
Q 1248 2739 1670 2490 
Q 1997 2682 2134 2896 
Q 2272 3110 2272 3411 
z
M 1734 1741 
L 1357 1997 
Q 1075 1766 960 1545 
Q 845 1325 845 1011 
Q 845 576 1065 333 
Q 1286 90 1658 90 
Q 1971 90 2166 285 
Q 2362 480 2362 794 
Q 2362 1082 2214 1299 
Q 2067 1517 1734 1741 
z
" transform="scale(0.015625)"/>
       </defs>
       <use xlink:href="#STIXGeneral-Regular-38"/>
       <use xlink:href="#STIXGeneral-Regular-30" x="49.999985"/>
      </g>
     </g>
    </g>
    <g id="text_6">
     <!-- Instance number -->
     <g transform="translate(191.423438 265.665312)scale(0.1 -0.1)">
      <defs>
       <path id="STIXGeneral-Regular-49" d="M 2016 0 
L 115 0 
L 115 122 
Q 518 134 627 240 
Q 736 346 736 717 
L 736 3526 
Q 736 3898 633 3994 
Q 531 4090 115 4115 
L 115 4237 
L 2016 4237 
L 2016 4115 
Q 1613 4096 1501 3993 
Q 1389 3891 1389 3526 
L 1389 717 
Q 1389 358 1504 246 
Q 1619 134 2016 122 
L 2016 0 
z
" transform="scale(0.015625)"/>
       <path id="STIXGeneral-Regular-6e" d="M 3104 0 
L 1773 0 
L 1779 96 
Q 2016 115 2096 233 
Q 2176 352 2176 672 
L 2176 1946 
Q 2176 2592 1709 2592 
Q 1549 2592 1408 2515 
Q 1267 2438 1050 2227 
L 1050 461 
Q 1050 269 1136 192 
Q 1222 115 1466 96 
L 1466 0 
L 115 0 
L 115 96 
Q 358 115 435 214 
Q 512 314 512 602 
L 512 2157 
Q 512 2394 467 2483 
Q 422 2573 288 2573 
Q 160 2573 102 2547 
L 102 2656 
Q 550 2784 979 2944 
L 1030 2925 
L 1030 2426 
L 1037 2426 
Q 1491 2944 1958 2944 
Q 2323 2944 2518 2688 
Q 2714 2432 2714 1958 
L 2714 544 
Q 2714 288 2790 205 
Q 2867 122 3104 96 
L 3104 0 
z
" transform="scale(0.015625)"/>
       <path id="STIXGeneral-Regular-73" d="M 998 1926 
L 1664 1523 
Q 1984 1331 2105 1164 
Q 2227 998 2227 736 
Q 2227 416 1961 176 
Q 1696 -64 1331 -64 
Q 1030 -64 864 -6 
Q 691 51 570 51 
Q 461 51 416 -26 
L 333 -26 
L 333 979 
L 435 979 
Q 538 512 730 294 
Q 922 77 1248 77 
Q 1485 77 1632 211 
Q 1779 346 1779 550 
Q 1779 845 1440 1030 
L 1094 1222 
Q 326 1651 326 2150 
Q 326 2522 566 2730 
Q 806 2938 1210 2938 
Q 1491 2938 1638 2867 
Q 1754 2816 1818 2816 
Q 1862 2816 1920 2880 
L 1990 2880 
L 2022 2010 
L 1926 2010 
Q 1818 2445 1654 2621 
Q 1491 2797 1203 2797 
Q 986 2797 854 2688 
Q 723 2579 723 2362 
Q 723 2253 796 2128 
Q 870 2003 998 1926 
z
" transform="scale(0.015625)"/>
       <path id="STIXGeneral-Regular-74" d="M 1702 493 
L 1786 422 
Q 1478 -64 1011 -64 
Q 448 -64 448 749 
L 448 2675 
L 109 2675 
Q 83 2694 83 2720 
Q 83 2771 192 2842 
Q 435 2982 813 3526 
Q 826 3546 874 3606 
Q 922 3667 941 3706 
Q 986 3706 986 3622 
L 986 2880 
L 1632 2880 
L 1632 2675 
L 986 2675 
L 986 845 
Q 986 538 1062 403 
Q 1139 269 1318 269 
Q 1510 269 1702 493 
z
" transform="scale(0.015625)"/>
       <path id="STIXGeneral-Regular-61" d="M 2829 422 
L 2829 243 
Q 2586 -64 2253 -64 
Q 1888 -64 1843 403 
L 1837 403 
Q 1427 -64 909 -64 
Q 608 -64 422 112 
Q 237 288 237 602 
Q 237 1050 685 1350 
Q 992 1555 1837 1869 
L 1837 2214 
Q 1837 2502 1699 2646 
Q 1562 2790 1338 2790 
Q 1146 2790 1018 2697 
Q 890 2605 890 2477 
Q 890 2419 909 2348 
Q 928 2278 928 2208 
Q 928 2112 841 2029 
Q 755 1946 634 1946 
Q 525 1946 441 2029 
Q 358 2112 358 2240 
Q 358 2547 685 2752 
Q 986 2944 1421 2944 
Q 1939 2944 2176 2656 
Q 2291 2522 2323 2384 
Q 2355 2246 2355 1946 
L 2355 723 
Q 2355 301 2554 301 
Q 2682 301 2829 422 
z
M 1837 813 
L 1837 1715 
Q 1248 1510 1018 1293 
Q 800 1094 800 800 
Q 800 557 921 432 
Q 1043 307 1242 307 
Q 1453 307 1613 410 
Q 1747 506 1792 589 
Q 1837 672 1837 813 
z
" transform="scale(0.015625)"/>
       <path id="STIXGeneral-Regular-63" d="M 2547 998 
L 2637 941 
Q 2362 403 2112 205 
Q 1786 -64 1376 -64 
Q 845 -64 502 336 
Q 160 736 160 1357 
Q 160 2170 698 2618 
Q 1094 2944 1562 2944 
Q 1965 2944 2256 2749 
Q 2547 2554 2547 2285 
Q 2547 2176 2457 2096 
Q 2368 2016 2246 2016 
Q 2022 2016 1939 2310 
L 1901 2451 
Q 1850 2630 1773 2694 
Q 1696 2758 1523 2758 
Q 1133 2758 893 2451 
Q 653 2144 653 1645 
Q 653 1094 928 745 
Q 1203 397 1645 397 
Q 1920 397 2118 528 
Q 2317 659 2547 998 
z
" transform="scale(0.015625)"/>
       <path id="STIXGeneral-Regular-65" d="M 2611 1050 
L 2714 1005 
Q 2330 -64 1376 -64 
Q 813 -64 486 329 
Q 160 723 160 1389 
Q 160 2074 525 2509 
Q 890 2944 1485 2944 
Q 2061 2944 2374 2502 
Q 2560 2246 2592 1773 
L 621 1773 
Q 646 1370 700 1158 
Q 755 947 915 730 
Q 1184 378 1626 378 
Q 1939 378 2153 531 
Q 2368 685 2611 1050 
z
M 634 1978 
L 1939 1978 
Q 1882 2381 1750 2547 
Q 1619 2714 1312 2714 
Q 1043 2714 864 2525 
Q 685 2336 634 1978 
z
" transform="scale(0.015625)"/>
       <path id="STIXGeneral-Regular-20" transform="scale(0.015625)"/>
       <path id="STIXGeneral-Regular-75" d="M 3072 320 
L 3072 230 
Q 2573 96 2195 -58 
L 2163 -38 
L 2163 486 
L 2150 486 
Q 1747 -64 1235 -64 
Q 870 -64 662 160 
Q 454 384 454 755 
L 454 2362 
Q 454 2598 371 2688 
Q 288 2778 58 2790 
L 58 2880 
L 992 2880 
L 992 813 
Q 992 595 1123 451 
Q 1254 307 1446 307 
Q 1760 307 1984 506 
Q 2067 582 2099 649 
Q 2131 717 2131 877 
L 2131 2355 
Q 2131 2605 2041 2678 
Q 1952 2752 1658 2771 
L 1658 2880 
L 2669 2880 
L 2669 685 
Q 2669 461 2742 390 
Q 2816 320 3034 320 
L 3072 320 
z
" transform="scale(0.015625)"/>
       <path id="STIXGeneral-Regular-6d" d="M 4960 0 
L 3565 0 
L 3565 96 
Q 3834 122 3907 208 
Q 3981 294 3981 576 
L 3981 1894 
Q 3981 2278 3869 2444 
Q 3757 2611 3488 2611 
Q 3264 2611 3107 2521 
Q 2950 2432 2803 2221 
L 2803 608 
Q 2803 301 2896 201 
Q 2989 102 3264 96 
L 3264 0 
L 1830 0 
L 1830 96 
Q 2112 115 2189 188 
Q 2266 262 2266 550 
L 2266 1901 
Q 2266 2611 1850 2611 
Q 1670 2611 1468 2531 
Q 1267 2451 1171 2336 
Q 1088 2240 1088 2227 
L 1088 448 
Q 1088 243 1177 176 
Q 1267 109 1523 96 
L 1523 0 
L 102 0 
L 102 96 
Q 371 102 460 195 
Q 550 288 550 563 
L 550 2150 
Q 550 2387 499 2480 
Q 448 2573 326 2573 
Q 230 2573 122 2547 
L 122 2656 
Q 557 2778 1011 2944 
L 1062 2925 
L 1062 2451 
L 1075 2451 
Q 1363 2752 1584 2848 
Q 1805 2944 2054 2944 
Q 2560 2944 2733 2406 
Q 3232 2944 3776 2944 
Q 4518 2944 4518 1792 
L 4518 493 
Q 4518 282 4582 202 
Q 4646 122 4794 109 
L 4960 96 
L 4960 0 
z
" transform="scale(0.015625)"/>
       <path id="STIXGeneral-Regular-62" d="M 979 4358 
L 979 2406 
Q 1082 2650 1315 2797 
Q 1549 2944 1843 2944 
Q 2349 2944 2672 2541 
Q 2995 2138 2995 1536 
Q 2995 832 2566 384 
Q 2138 -64 1498 -64 
Q 1107 -64 774 67 
Q 442 198 442 358 
L 442 3622 
Q 442 3859 384 3926 
Q 326 3994 128 3994 
Q 83 3994 19 3981 
L 19 4090 
L 211 4147 
Q 864 4346 947 4371 
L 979 4358 
z
M 979 2035 
L 979 474 
Q 979 326 1161 233 
Q 1344 141 1600 141 
Q 1978 141 2195 416 
Q 2432 710 2432 1261 
Q 2432 1888 2182 2240 
Q 1971 2541 1613 2541 
Q 1357 2541 1168 2390 
Q 979 2240 979 2035 
z
" transform="scale(0.015625)"/>
       <path id="STIXGeneral-Regular-72" d="M 1024 2931 
L 1024 2342 
Q 1267 2688 1430 2816 
Q 1594 2944 1792 2944 
Q 1958 2944 2051 2854 
Q 2144 2765 2144 2605 
Q 2144 2470 2077 2393 
Q 2010 2317 1894 2317 
Q 1773 2317 1638 2445 
Q 1536 2541 1472 2541 
Q 1338 2541 1181 2355 
Q 1024 2170 1024 2016 
L 1024 576 
Q 1024 301 1133 205 
Q 1242 109 1568 96 
L 1568 0 
L 32 0 
L 32 96 
Q 339 154 412 224 
Q 486 294 486 538 
L 486 2138 
Q 486 2349 438 2435 
Q 390 2522 269 2522 
Q 166 2522 45 2496 
L 45 2598 
Q 448 2726 992 2944 
L 1024 2931 
z
" transform="scale(0.015625)"/>
      </defs>
      <use xlink:href="#STIXGeneral-Regular-49"/>
      <use xlink:href="#STIXGeneral-Regular-6e" x="33.299988"/>
      <use xlink:href="#STIXGeneral-Regular-73" x="83.299973"/>
      <use xlink:href="#STIXGeneral-Regular-74" x="122.199966"/>
      <use xlink:href="#STIXGeneral-Regular-61" x="149.999954"/>
      <use xlink:href="#STIXGeneral-Regular-6e" x="194.399948"/>
      <use xlink:href="#STIXGeneral-Regular-63" x="244.399933"/>
      <use xlink:href="#STIXGeneral-Regular-65" x="288.799927"/>
      <use xlink:href="#STIXGeneral-Regular-20" x="333.199921"/>
      <use xlink:href="#STIXGeneral-Regular-6e" x="358.199905"/>
      <use xlink:href="#STIXGeneral-Regular-75" x="408.19989"/>
      <use xlink:href="#STIXGeneral-Regular-6d" x="458.199875"/>
      <use xlink:href="#STIXGeneral-Regular-62" x="535.999863"/>
      <use xlink:href="#STIXGeneral-Regular-65" x="585.999847"/>
      <use xlink:href="#STIXGeneral-Regular-72" x="630.399841"/>
     </g>
    </g>
   </g>
   <g id="matplotlib.axis_2">
    <g id="ytick_1">
     <g id="line2d_6">
      <defs>
       <path id="md90791c231" d="M 0 0 
L -3.5 0 
" style="stroke: #000000; stroke-width: 0.8"/>
      </defs>
      <g>
       <use xlink:href="#md90791c231" x="57.209375" y="227.224364" style="stroke: #000000; stroke-width: 0.8"/>
      </g>
     </g>
     <g id="text_7">
      <!-- 20000 -->
      <g transform="translate(25.209375 230.639207)scale(0.1 -0.1)">
       <use xlink:href="#STIXGeneral-Regular-32"/>
       <use xlink:href="#STIXGeneral-Regular-30" x="49.999985"/>
       <use xlink:href="#STIXGeneral-Regular-30" x="99.999969"/>
       <use xlink:href="#STIXGeneral-Regular-30" x="149.999954"/>
       <use xlink:href="#STIXGeneral-Regular-30" x="199.999939"/>
      </g>
     </g>
    </g>
    <g id="ytick_2">
     <g id="line2d_7">
      <g>
       <use xlink:href="#md90791c231" x="57.209375" y="190.751474" style="stroke: #000000; stroke-width: 0.8"/>
      </g>
     </g>
     <g id="text_8">
      <!-- 40000 -->
      <g transform="translate(25.209375 194.166318)scale(0.1 -0.1)">
       <use xlink:href="#STIXGeneral-Regular-34"/>
       <use xlink:href="#STIXGeneral-Regular-30" x="49.999985"/>
       <use xlink:href="#STIXGeneral-Regular-30" x="99.999969"/>
       <use xlink:href="#STIXGeneral-Regular-30" x="149.999954"/>
       <use xlink:href="#STIXGeneral-Regular-30" x="199.999939"/>
      </g>
     </g>
    </g>
    <g id="ytick_3">
     <g id="line2d_8">
      <g>
       <use xlink:href="#md90791c231" x="57.209375" y="154.278584" style="stroke: #000000; stroke-width: 0.8"/>
      </g>
     </g>
     <g id="text_9">
      <!-- 60000 -->
      <g transform="translate(25.209375 157.693428)scale(0.1 -0.1)">
       <use xlink:href="#STIXGeneral-Regular-36"/>
       <use xlink:href="#STIXGeneral-Regular-30" x="49.999985"/>
       <use xlink:href="#STIXGeneral-Regular-30" x="99.999969"/>
       <use xlink:href="#STIXGeneral-Regular-30" x="149.999954"/>
       <use xlink:href="#STIXGeneral-Regular-30" x="199.999939"/>
      </g>
     </g>
    </g>
    <g id="ytick_4">
     <g id="line2d_9">
      <g>
       <use xlink:href="#md90791c231" x="57.209375" y="117.805694" style="stroke: #000000; stroke-width: 0.8"/>
      </g>
     </g>
     <g id="text_10">
      <!-- 80000 -->
      <g transform="translate(25.209375 121.220538)scale(0.1 -0.1)">
       <use xlink:href="#STIXGeneral-Regular-38"/>
       <use xlink:href="#STIXGeneral-Regular-30" x="49.999985"/>
       <use xlink:href="#STIXGeneral-Regular-30" x="99.999969"/>
       <use xlink:href="#STIXGeneral-Regular-30" x="149.999954"/>
       <use xlink:href="#STIXGeneral-Regular-30" x="199.999939"/>
      </g>
     </g>
    </g>
    <g id="ytick_5">
     <g id="line2d_10">
      <g>
       <use xlink:href="#md90791c231" x="57.209375" y="81.332805" style="stroke: #000000; stroke-width: 0.8"/>
      </g>
     </g>
     <g id="text_11">
      <!-- 100000 -->
      <g transform="translate(20.209375 84.747648)scale(0.1 -0.1)">
       <defs>
        <path id="STIXGeneral-Regular-31" d="M 2522 0 
L 755 0 
L 755 96 
Q 1107 115 1235 227 
Q 1363 339 1363 608 
L 1363 3482 
Q 1363 3795 1171 3795 
Q 1082 3795 883 3718 
L 710 3654 
L 710 3744 
L 1856 4326 
L 1914 4307 
L 1914 486 
Q 1914 275 2042 185 
Q 2170 96 2522 96 
L 2522 0 
z
" transform="scale(0.015625)"/>
       </defs>
       <use xlink:href="#STIXGeneral-Regular-31"/>
       <use xlink:href="#STIXGeneral-Regular-30" x="49.999985"/>
       <use xlink:href="#STIXGeneral-Regular-30" x="99.999969"/>
       <use xlink:href="#STIXGeneral-Regular-30" x="149.999954"/>
       <use xlink:href="#STIXGeneral-Regular-30" x="199.999939"/>
       <use xlink:href="#STIXGeneral-Regular-30" x="249.999924"/>
      </g>
     </g>
    </g>
    <g id="ytick_6">
     <g id="line2d_11">
      <g>
       <use xlink:href="#md90791c231" x="57.209375" y="44.859915" style="stroke: #000000; stroke-width: 0.8"/>
      </g>
     </g>
     <g id="text_12">
      <!-- 120000 -->
      <g transform="translate(20.209375 48.274759)scale(0.1 -0.1)">
       <use xlink:href="#STIXGeneral-Regular-31"/>
       <use xlink:href="#STIXGeneral-Regular-32" x="49.999985"/>
       <use xlink:href="#STIXGeneral-Regular-30" x="99.999969"/>
       <use xlink:href="#STIXGeneral-Regular-30" x="149.999954"/>
       <use xlink:href="#STIXGeneral-Regular-30" x="199.999939"/>
       <use xlink:href="#STIXGeneral-Regular-30" x="249.999924"/>
      </g>
     </g>
    </g>
    <g id="text_13">
     <!-- Optimal objective value -->
     <g transform="translate(14.029687 178.166406)rotate(-90)scale(0.1 -0.1)">
      <defs>
       <path id="STIXGeneral-Regular-4f" d="M 4403 2118 
Q 4403 1133 3820 521 
Q 3238 -90 2310 -90 
Q 1376 -90 797 524 
Q 218 1139 218 2138 
Q 218 3110 797 3718 
Q 1376 4326 2310 4326 
Q 3245 4326 3824 3702 
Q 4403 3078 4403 2118 
z
M 3674 2157 
Q 3674 2701 3520 3133 
Q 3366 3565 3091 3795 
Q 2733 4096 2304 4096 
Q 1760 4096 1389 3667 
Q 1184 3437 1065 3011 
Q 947 2586 947 2125 
Q 947 960 1523 429 
Q 1837 141 2317 141 
Q 2816 141 3142 448 
Q 3674 960 3674 2157 
z
" transform="scale(0.015625)"/>
       <path id="STIXGeneral-Regular-70" d="M 1018 2931 
L 1018 2438 
Q 1421 2944 1939 2944 
Q 2406 2944 2707 2560 
Q 3008 2176 3008 1581 
Q 3008 883 2621 409 
Q 2234 -64 1664 -64 
Q 1466 -64 1328 -6 
Q 1190 51 1018 211 
L 1018 -794 
Q 1018 -1094 1120 -1180 
Q 1222 -1267 1581 -1274 
L 1581 -1389 
L 32 -1389 
L 32 -1280 
Q 314 -1254 397 -1171 
Q 480 -1088 480 -838 
L 480 2157 
Q 480 2381 429 2451 
Q 378 2522 218 2522 
Q 115 2522 58 2515 
L 58 2618 
Q 506 2752 979 2944 
L 1018 2931 
z
M 1018 2138 
L 1018 563 
Q 1018 422 1238 281 
Q 1459 141 1683 141 
Q 2029 141 2243 467 
Q 2458 794 2458 1325 
Q 2458 1888 2243 2224 
Q 2029 2560 1670 2560 
Q 1446 2560 1232 2419 
Q 1018 2278 1018 2138 
z
" transform="scale(0.015625)"/>
       <path id="STIXGeneral-Regular-69" d="M 1152 4045 
Q 1152 3904 1056 3811 
Q 960 3718 819 3718 
Q 685 3718 592 3811 
Q 499 3904 499 4045 
Q 499 4179 595 4275 
Q 691 4371 826 4371 
Q 966 4371 1059 4275 
Q 1152 4179 1152 4045 
z
M 1619 0 
L 102 0 
L 102 96 
Q 435 115 521 211 
Q 608 307 608 666 
L 608 2118 
Q 608 2342 563 2432 
Q 518 2522 397 2522 
Q 243 2522 128 2490 
L 128 2592 
L 1120 2944 
L 1146 2918 
L 1146 672 
Q 1146 314 1226 218 
Q 1306 122 1619 96 
L 1619 0 
z
" transform="scale(0.015625)"/>
       <path id="STIXGeneral-Regular-6c" d="M 1645 0 
L 134 0 
L 134 96 
Q 435 122 531 221 
Q 627 320 627 589 
L 627 3590 
Q 627 3821 569 3910 
Q 512 4000 358 4000 
Q 224 4000 122 3987 
L 122 4090 
Q 730 4237 1133 4371 
L 1165 4346 
L 1165 557 
Q 1165 288 1254 201 
Q 1344 115 1645 96 
L 1645 0 
z
" transform="scale(0.015625)"/>
       <path id="STIXGeneral-Regular-6f" d="M 3008 1478 
Q 3008 806 2608 371 
Q 2208 -64 1568 -64 
Q 979 -64 582 368 
Q 186 800 186 1459 
Q 186 2125 582 2534 
Q 979 2944 1626 2944 
Q 2221 2944 2614 2537 
Q 3008 2131 3008 1478 
z
M 2432 1306 
Q 2432 2035 2112 2445 
Q 1856 2765 1504 2765 
Q 1171 2765 966 2493 
Q 762 2221 762 1747 
Q 762 928 1101 435 
Q 1318 115 1677 115 
Q 2029 115 2230 432 
Q 2432 749 2432 1306 
z
" transform="scale(0.015625)"/>
       <path id="STIXGeneral-Regular-6a" d="M 1242 4045 
Q 1242 3904 1146 3811 
Q 1050 3718 909 3718 
Q 774 3718 681 3811 
Q 589 3904 589 4045 
Q 589 4179 685 4275 
Q 781 4371 915 4371 
Q 1050 4371 1146 4275 
Q 1242 4179 1242 4045 
z
M 1235 2925 
L 1235 0 
Q 1235 -685 956 -1040 
Q 678 -1395 147 -1395 
Q -115 -1395 -281 -1296 
Q -448 -1197 -448 -1043 
Q -448 -941 -371 -867 
Q -294 -794 -186 -794 
Q -38 -794 122 -998 
Q 269 -1178 390 -1178 
Q 538 -1178 608 -1062 
Q 698 -902 698 -288 
L 698 2138 
Q 698 2522 493 2522 
Q 339 2522 237 2502 
L 205 2496 
L 205 2598 
Q 717 2758 1203 2944 
L 1235 2925 
z
" transform="scale(0.015625)"/>
       <path id="STIXGeneral-Regular-76" d="M 3053 2880 
L 3053 2784 
Q 2906 2771 2835 2688 
Q 2765 2605 2637 2285 
L 1818 230 
Q 1690 -90 1638 -90 
Q 1587 -90 1523 77 
Q 1510 96 1497 141 
Q 1485 186 1472 211 
L 704 2048 
Q 499 2534 403 2652 
Q 307 2771 122 2784 
L 122 2880 
L 1376 2880 
L 1376 2784 
Q 1210 2771 1146 2732 
Q 1082 2694 1082 2611 
Q 1082 2509 1139 2368 
L 1792 730 
L 2426 2387 
Q 2464 2483 2464 2579 
Q 2464 2758 2163 2784 
L 2163 2880 
L 3053 2880 
z
" transform="scale(0.015625)"/>
      </defs>
      <use xlink:href="#STIXGeneral-Regular-4f"/>
      <use xlink:href="#STIXGeneral-Regular-70" x="72.199982"/>
      <use xlink:href="#STIXGeneral-Regular-74" x="122.199966"/>
      <use xlink:href="#STIXGeneral-Regular-69" x="149.999954"/>
      <use xlink:href="#STIXGeneral-Regular-6d" x="177.799942"/>
      <use xlink:href="#STIXGeneral-Regular-61" x="255.59993"/>
      <use xlink:href="#STIXGeneral-Regular-6c" x="299.999924"/>
      <use xlink:href="#STIXGeneral-Regular-20" x="327.799911"/>
      <use xlink:href="#STIXGeneral-Regular-6f" x="352.799896"/>
      <use xlink:href="#STIXGeneral-Regular-62" x="402.799881"/>
      <use xlink:href="#STIXGeneral-Regular-6a" x="452.799866"/>
      <use xlink:href="#STIXGeneral-Regular-65" x="480.599854"/>
      <use xlink:href="#STIXGeneral-Regular-63" x="524.999847"/>
      <use xlink:href="#STIXGeneral-Regular-74" x="569.399841"/>
      <use xlink:href="#STIXGeneral-Regular-69" x="597.199829"/>
      <use xlink:href="#STIXGeneral-Regular-76" x="624.999817"/>
      <use xlink:href="#STIXGeneral-Regular-65" x="674.999802"/>
      <use xlink:href="#STIXGeneral-Regular-20" x="719.399796"/>
      <use xlink:href="#STIXGeneral-Regular-76" x="744.39978"/>
      <use xlink:href="#STIXGeneral-Regular-61" x="794.399765"/>
      <use xlink:href="#STIXGeneral-Regular-6c" x="838.799759"/>
      <use xlink:href="#STIXGeneral-Regular-75" x="866.599747"/>
      <use xlink:href="#STIXGeneral-Regular-65" x="916.599731"/>
     </g>
    </g>
   </g>
   <g id="line2d_12">
    <path d="M 72.427557 105.492387 
L 75.631385 106.405908 
L 78.835212 107.552059 
L 82.03904 111.206077 
L 85.242868 109.099028 
L 88.446696 111.821866 
L 91.650523 113.206047 
L 94.854351 113.910518 
L 98.058179 115.796849 
L 101.262007 119.805254 
L 104.465834 119.464826 
L 107.669662 120.836802 
L 110.87349 124.995227 
L 114.077318 125.999061 
L 117.281145 128.192823 
L 120.484973 130.361026 
L 123.688801 130.425043 
L 126.892629 129.22521 
L 130.096456 127.386747 
L 133.300284 124.884828 
L 136.504112 123.054672 
L 139.70794 119.808556 
L 142.911767 114.548927 
L 146.115595 111.550956 
L 149.319423 104.961355 
L 152.523251 94.10421 
L 155.727078 86.833822 
L 158.930906 80.921628 
L 162.134734 74.866535 
L 165.338562 67.864969 
L 168.542389 66.673911 
L 171.746217 65.27547 
L 174.950045 61.6112 
L 178.153873 60.418526 
L 181.3577 56.068188 
L 184.561528 54.4038 
L 187.765356 52.102155 
L 190.969184 49.037436 
L 194.173011 52.734454 
L 197.376839 55.498374 
L 200.580667 56.754057 
L 203.784495 54.366461 
L 206.988322 57.197756 
L 210.19215 58.007489 
L 213.395978 59.519224 
L 216.599806 60.157315 
L 219.803633 64.783071 
L 223.007461 65.514233 
L 226.211289 71.547167 
L 229.415117 71.590693 
L 232.618944 67.950891 
L 235.822772 72.473518 
L 239.0266 71.2782 
L 242.230428 68.397492 
L 245.434255 69.966193 
L 248.638083 78.893242 
L 251.841911 72.219699 
L 255.045739 72.084283 
L 258.249566 74.881152 
L 261.453394 75.754384 
L 264.657222 72.304551 
L 267.86105 76.397303 
L 271.064877 73.469794 
L 274.268705 73.806674 
L 277.472533 70.022245 
L 280.676361 67.375575 
L 283.880188 61.830939 
L 287.084016 54.246397 
L 290.287844 44.397631 
L 293.491672 40.717185 
L 296.695499 37.694461 
L 299.899327 33.946351 
L 303.103155 35.045922 
L 306.306983 33.556535 
L 309.51081 33.239774 
L 312.714638 33.617145 
L 315.918466 31.279261 
L 319.122294 32.854149 
L 322.326121 34.930231 
L 325.529949 35.886915 
L 328.733777 38.80897 
L 331.937605 38.299098 
L 335.141432 44.379302 
L 338.34526 47.419627 
L 341.549088 50.93995 
L 344.752916 57.115087 
L 347.956743 62.143739 
L 351.160571 67.622846 
L 354.364399 73.605191 
L 357.568227 75.069277 
L 360.772054 77.495343 
L 363.975882 78.393022 
L 367.17971 80.747132 
L 370.383538 83.584813 
L 373.587365 85.905492 
L 376.791193 90.572894 
" clip-path="url(#pf063733e76)" style="fill: none; stroke: #0000ff; stroke-width: 1.5; stroke-linecap: square"/>
   </g>
   <g id="line2d_13">
    <path d="M 72.427557 205.313533 
L 75.631385 206.227054 
L 78.835212 207.373205 
L 82.03904 211.027224 
L 85.242868 208.920174 
L 88.446696 211.432524 
L 91.650523 212.455925 
L 94.854351 213.286005 
L 98.058179 214.629576 
L 101.262007 218.105979 
L 104.465834 217.792368 
L 107.669662 218.839982 
L 110.87349 222.292498 
L 114.077318 223.079281 
L 117.281145 224.885603 
L 120.484973 226.95149 
L 123.688801 226.677713 
L 126.892629 225.771584 
L 130.096456 224.295119 
L 133.300284 222.218924 
L 136.504112 220.84287 
L 139.70794 218.086977 
L 142.911767 213.263227 
L 146.115595 211.285977 
L 149.319423 204.782501 
L 152.523251 193.925356 
L 155.727078 186.016261 
L 158.930906 177.120708 
L 162.134734 168.535331 
L 165.338562 158.022625 
L 168.542389 156.131529 
L 171.746217 154.987811 
L 174.950045 150.050495 
L 178.153873 148.118953 
L 181.3577 142.688861 
L 184.561528 140.203097 
L 187.765356 135.67899 
L 190.969184 132.259459 
L 194.173011 137.213223 
L 197.376839 142.349702 
L 200.580667 144.505406 
L 203.784495 140.412084 
L 206.988322 146.209945 
L 210.19215 145.928822 
L 213.395978 149.385302 
L 216.599806 149.331145 
L 219.803633 156.446904 
L 223.007461 158.203262 
L 226.211289 164.365859 
L 229.415117 164.862978 
L 232.618944 161.127451 
L 235.822772 167.212217 
L 239.0266 165.640207 
L 242.230428 162.915489 
L 245.434255 164.52954 
L 248.638083 171.273334 
L 251.841911 166.884597 
L 255.045739 167.172408 
L 258.249566 169.68335 
L 261.453394 170.584642 
L 264.657222 167.334791 
L 267.86105 171.337134 
L 271.064877 168.875088 
L 274.268705 169.376391 
L 277.472533 164.934731 
L 280.676361 161.627136 
L 283.880188 152.228548 
L 287.084016 140.71337 
L 290.287844 125.380428 
L 293.491672 119.143269 
L 296.695499 113.236907 
L 299.899327 108.433891 
L 303.103155 109.444316 
L 306.306983 108.196334 
L 309.51081 106.228416 
L 312.714638 106.259071 
L 315.918466 102.124464 
L 319.122294 104.495927 
L 322.326121 106.53529 
L 325.529949 109.120107 
L 328.733777 113.932115 
L 331.937605 114.028662 
L 335.141432 122.701743 
L 338.34526 127.900665 
L 341.549088 133.122605 
L 344.752916 142.613477 
L 347.956743 149.942747 
L 351.160571 158.53631 
L 354.364399 166.591294 
L 357.568227 169.401062 
L 360.772054 172.442424 
L 363.975882 173.909564 
L 367.17971 178.246982 
L 370.383538 181.49812 
L 373.587365 184.98112 
L 376.791193 190.39404 
" clip-path="url(#pf063733e76)" style="fill: none; stroke: #008000; stroke-width: 1.5; stroke-linecap: square"/>
   </g>
   <g id="line2d_14">
    <path d="M 72.427557 217.091491 
L 75.631385 217.575195 
L 78.835212 218.079761 
L 82.03904 219.867919 
L 85.242868 218.821896 
L 88.446696 220.121631 
L 91.650523 220.768927 
L 94.854351 221.125495 
L 98.058179 222.003132 
L 101.262007 223.922604 
L 104.465834 223.757975 
L 107.669662 224.40248 
L 110.87349 226.38028 
L 114.077318 226.853623 
L 117.281145 227.895685 
L 120.484973 228.950225 
L 123.688801 228.951989 
L 126.892629 228.389232 
L 130.096456 227.519215 
L 133.300284 226.329359 
L 136.504112 225.471497 
L 139.70794 223.922267 
L 142.911767 221.380628 
L 146.115595 219.999659 
L 149.319423 216.809883 
L 152.523251 211.672228 
L 155.727078 207.8825 
L 158.930906 203.641035 
L 162.134734 198.166467 
L 165.338562 189.148675 
L 168.542389 188.431558 
L 171.746217 187.786621 
L 174.950045 184.080929 
L 178.153873 182.50297 
L 181.3577 178.617325 
L 184.561528 175.219449 
L 187.765356 169.834695 
L 190.969184 165.702662 
L 194.173011 167.995414 
L 197.376839 170.541445 
L 200.580667 171.018355 
L 203.784495 168.349649 
L 206.988322 169.287116 
L 210.19215 167.853193 
L 213.395978 168.752692 
L 216.599806 170.73988 
L 219.803633 174.153642 
L 223.007461 176.418405 
L 226.211289 176.504753 
L 229.415117 176.645522 
L 232.618944 173.883563 
L 235.822772 177.840078 
L 239.0266 177.791817 
L 242.230428 176.712606 
L 245.434255 176.634759 
L 248.638083 180.074506 
L 251.841911 178.463064 
L 255.045739 178.318817 
L 258.249566 180.080337 
L 261.453394 179.46313 
L 264.657222 179.190879 
L 267.86105 180.313374 
L 271.064877 182.529523 
L 274.268705 182.408885 
L 277.472533 179.782021 
L 280.676361 178.584006 
L 283.880188 172.981585 
L 287.084016 164.743918 
L 290.287844 154.463202 
L 293.491672 149.361965 
L 296.695499 148.333636 
L 299.899327 144.04036 
L 303.103155 146.801686 
L 306.306983 147.300604 
L 309.51081 147.668298 
L 312.714638 147.826982 
L 315.918466 143.571809 
L 319.122294 145.626175 
L 322.326121 146.902549 
L 325.529949 149.180785 
L 328.733777 153.039566 
L 331.937605 153.2074 
L 335.141432 160.852615 
L 338.34526 164.928885 
L 341.549088 169.574514 
L 344.752916 177.500418 
L 347.956743 183.63835 
L 351.160571 190.627613 
L 354.364399 197.869025 
L 357.568227 199.906792 
L 360.772054 201.450292 
L 363.975882 202.155799 
L 367.17971 204.241543 
L 370.383538 205.804926 
L 373.587365 207.457388 
L 376.791193 210.032602 
" clip-path="url(#pf063733e76)" style="fill: none; stroke: #ffa500; stroke-width: 1.5; stroke-linecap: square"/>
   </g>
   <g id="patch_3">
    <path d="M 57.209375 238.835625 
L 57.209375 21.395625 
" style="fill: none; stroke: #000000; stroke-width: 0.8; stroke-linejoin: miter; stroke-linecap: square"/>
   </g>
   <g id="patch_4">
    <path d="M 392.009375 238.835625 
L 392.009375 21.395625 
" style="fill: none; stroke: #000000; stroke-width: 0.8; stroke-linejoin: miter; stroke-linecap: square"/>
   </g>
   <g id="patch_5">
    <path d="M 57.209375 238.835625 
L 392.009375 238.835625 
" style="fill: none; stroke: #000000; stroke-width: 0.8; stroke-linejoin: miter; stroke-linecap: square"/>
   </g>
   <g id="patch_6">
    <path d="M 57.209375 21.395625 
L 392.009375 21.395625 
" style="fill: none; stroke: #000000; stroke-width: 0.8; stroke-linejoin: miter; stroke-linecap: square"/>
   </g>
   <g id="text_14">
    <!-- Optimal objective values over all instances and models -->
    <g transform="translate(92.455625 15.395625)scale(0.12 -0.12)">
     <defs>
      <path id="STIXGeneral-Regular-64" d="M 3142 269 
L 2202 -64 
L 2176 -45 
L 2176 365 
Q 1869 -64 1357 -64 
Q 826 -64 499 317 
Q 173 698 173 1312 
Q 173 1990 563 2467 
Q 954 2944 1504 2944 
Q 1850 2944 2176 2669 
L 2176 3667 
Q 2176 3866 2118 3930 
Q 2061 3994 1882 3994 
Q 1792 3994 1741 3987 
L 1741 4090 
Q 2323 4243 2682 4371 
L 2714 4358 
L 2714 730 
Q 2714 506 2768 435 
Q 2822 365 2995 365 
Q 3034 365 3142 371 
L 3142 269 
z
M 2176 653 
L 2176 2125 
Q 2176 2381 1981 2573 
Q 1786 2765 1523 2765 
Q 1158 2765 940 2438 
Q 723 2112 723 1568 
Q 723 979 963 624 
Q 1203 269 1606 269 
Q 1907 269 2080 474 
Q 2176 582 2176 653 
z
" transform="scale(0.015625)"/>
     </defs>
     <use xlink:href="#STIXGeneral-Regular-4f"/>
     <use xlink:href="#STIXGeneral-Regular-70" x="72.199982"/>
     <use xlink:href="#STIXGeneral-Regular-74" x="122.199966"/>
     <use xlink:href="#STIXGeneral-Regular-69" x="149.999954"/>
     <use xlink:href="#STIXGeneral-Regular-6d" x="177.799942"/>
     <use xlink:href="#STIXGeneral-Regular-61" x="255.59993"/>
     <use xlink:href="#STIXGeneral-Regular-6c" x="299.999924"/>
     <use xlink:href="#STIXGeneral-Regular-20" x="327.799911"/>
     <use xlink:href="#STIXGeneral-Regular-6f" x="352.799896"/>
     <use xlink:href="#STIXGeneral-Regular-62" x="402.799881"/>
     <use xlink:href="#STIXGeneral-Regular-6a" x="452.799866"/>
     <use xlink:href="#STIXGeneral-Regular-65" x="480.599854"/>
     <use xlink:href="#STIXGeneral-Regular-63" x="524.999847"/>
     <use xlink:href="#STIXGeneral-Regular-74" x="569.399841"/>
     <use xlink:href="#STIXGeneral-Regular-69" x="597.199829"/>
     <use xlink:href="#STIXGeneral-Regular-76" x="624.999817"/>
     <use xlink:href="#STIXGeneral-Regular-65" x="674.999802"/>
     <use xlink:href="#STIXGeneral-Regular-20" x="719.399796"/>
     <use xlink:href="#STIXGeneral-Regular-76" x="744.39978"/>
     <use xlink:href="#STIXGeneral-Regular-61" x="794.399765"/>
     <use xlink:href="#STIXGeneral-Regular-6c" x="838.799759"/>
     <use xlink:href="#STIXGeneral-Regular-75" x="866.599747"/>
     <use xlink:href="#STIXGeneral-Regular-65" x="916.599731"/>
     <use xlink:href="#STIXGeneral-Regular-73" x="960.999725"/>
     <use xlink:href="#STIXGeneral-Regular-20" x="999.899719"/>
     <use xlink:href="#STIXGeneral-Regular-6f" x="1024.899704"/>
     <use xlink:href="#STIXGeneral-Regular-76" x="1074.899689"/>
     <use xlink:href="#STIXGeneral-Regular-65" x="1124.899673"/>
     <use xlink:href="#STIXGeneral-Regular-72" x="1169.299667"/>
     <use xlink:href="#STIXGeneral-Regular-20" x="1202.599655"/>
     <use xlink:href="#STIXGeneral-Regular-61" x="1227.59964"/>
     <use xlink:href="#STIXGeneral-Regular-6c" x="1271.999634"/>
     <use xlink:href="#STIXGeneral-Regular-6c" x="1299.799622"/>
     <use xlink:href="#STIXGeneral-Regular-20" x="1327.599609"/>
     <use xlink:href="#STIXGeneral-Regular-69" x="1352.599594"/>
     <use xlink:href="#STIXGeneral-Regular-6e" x="1380.399582"/>
     <use xlink:href="#STIXGeneral-Regular-73" x="1430.399567"/>
     <use xlink:href="#STIXGeneral-Regular-74" x="1469.299561"/>
     <use xlink:href="#STIXGeneral-Regular-61" x="1497.099548"/>
     <use xlink:href="#STIXGeneral-Regular-6e" x="1541.499542"/>
     <use xlink:href="#STIXGeneral-Regular-63" x="1591.499527"/>
     <use xlink:href="#STIXGeneral-Regular-65" x="1635.899521"/>
     <use xlink:href="#STIXGeneral-Regular-73" x="1680.299515"/>
     <use xlink:href="#STIXGeneral-Regular-20" x="1719.199509"/>
     <use xlink:href="#STIXGeneral-Regular-61" x="1744.199493"/>
     <use xlink:href="#STIXGeneral-Regular-6e" x="1788.599487"/>
     <use xlink:href="#STIXGeneral-Regular-64" x="1838.599472"/>
     <use xlink:href="#STIXGeneral-Regular-20" x="1888.599457"/>
     <use xlink:href="#STIXGeneral-Regular-6d" x="1913.599442"/>
     <use xlink:href="#STIXGeneral-Regular-6f" x="1991.399429"/>
     <use xlink:href="#STIXGeneral-Regular-64" x="2041.399414"/>
     <use xlink:href="#STIXGeneral-Regular-65" x="2091.399399"/>
     <use xlink:href="#STIXGeneral-Regular-6c" x="2135.799393"/>
     <use xlink:href="#STIXGeneral-Regular-73" x="2163.59938"/>
    </g>
   </g>
   <g id="legend_1">
    <g id="patch_7">
     <path d="M 64.209375 71.906563 
L 119.559375 71.906563 
Q 121.559375 71.906563 121.559375 69.906563 
L 121.559375 28.395625 
Q 121.559375 26.395625 119.559375 26.395625 
L 64.209375 26.395625 
Q 62.209375 26.395625 62.209375 28.395625 
L 62.209375 69.906563 
Q 62.209375 71.906563 64.209375 71.906563 
z
" style="fill: #ffffff; opacity: 0.8; stroke: #cccccc; stroke-linejoin: miter"/>
    </g>
    <g id="line2d_15">
     <path d="M 66.209375 33.895625 
L 76.209375 33.895625 
L 86.209375 33.895625 
" style="fill: none; stroke: #0000ff; stroke-width: 1.5; stroke-linecap: square"/>
    </g>
    <g id="text_15">
     <!-- OPF1 -->
     <g transform="translate(94.209375 37.395625)scale(0.1 -0.1)">
      <defs>
       <path id="STIXGeneral-Regular-50" d="M 102 4237 
L 1760 4237 
Q 2669 4237 3149 3834 
Q 3469 3565 3469 3072 
Q 3469 2560 3104 2234 
Q 2835 1990 2553 1916 
Q 2272 1843 1734 1843 
Q 1549 1843 1293 1862 
L 1293 717 
Q 1293 352 1398 246 
Q 1504 141 1894 122 
L 1894 0 
L 102 0 
L 102 122 
Q 474 147 557 256 
Q 640 365 640 781 
L 640 3526 
Q 640 3885 547 3987 
Q 454 4090 102 4115 
L 102 4237 
z
M 1293 3770 
L 1293 2118 
Q 1510 2099 1683 2099 
Q 2202 2099 2486 2352 
Q 2771 2605 2771 3040 
Q 2771 3558 2476 3779 
Q 2182 4000 1517 4000 
Q 1382 4000 1337 3952 
Q 1293 3904 1293 3770 
z
" transform="scale(0.015625)"/>
       <path id="STIXGeneral-Regular-46" d="M 3494 3322 
L 3334 3322 
Q 3264 3757 3094 3875 
Q 2925 3994 2349 3994 
L 1504 3994 
Q 1370 3994 1328 3946 
Q 1286 3898 1286 3744 
L 1286 2355 
L 2195 2355 
Q 2598 2355 2736 2470 
Q 2874 2586 2918 2963 
L 3066 2963 
L 3066 1472 
L 2918 1472 
Q 2880 1862 2745 1977 
Q 2611 2093 2195 2093 
L 1286 2093 
L 1286 717 
Q 1286 352 1392 246 
Q 1498 141 1869 122 
L 1869 0 
L 70 0 
L 70 122 
Q 435 147 534 259 
Q 634 371 634 787 
L 634 3526 
Q 634 3878 538 3984 
Q 442 4090 77 4115 
L 77 4237 
L 3462 4237 
L 3494 3322 
z
" transform="scale(0.015625)"/>
      </defs>
      <use xlink:href="#STIXGeneral-Regular-4f"/>
      <use xlink:href="#STIXGeneral-Regular-50" x="72.199982"/>
      <use xlink:href="#STIXGeneral-Regular-46" x="127.899979"/>
      <use xlink:href="#STIXGeneral-Regular-31" x="183.499969"/>
     </g>
    </g>
    <g id="line2d_16">
     <path d="M 66.209375 48.065937 
L 76.209375 48.065937 
L 86.209375 48.065937 
" style="fill: none; stroke: #008000; stroke-width: 1.5; stroke-linecap: square"/>
    </g>
    <g id="text_16">
     <!-- OPF2 -->
     <g transform="translate(94.209375 51.565937)scale(0.1 -0.1)">
      <use xlink:href="#STIXGeneral-Regular-4f"/>
      <use xlink:href="#STIXGeneral-Regular-50" x="72.199982"/>
      <use xlink:href="#STIXGeneral-Regular-46" x="127.899979"/>
      <use xlink:href="#STIXGeneral-Regular-32" x="183.499969"/>
     </g>
    </g>
    <g id="line2d_17">
     <path d="M 66.209375 62.23625 
L 76.209375 62.23625 
L 86.209375 62.23625 
" style="fill: none; stroke: #ffa500; stroke-width: 1.5; stroke-linecap: square"/>
    </g>
    <g id="text_17">
     <!-- OPF3 -->
     <g transform="translate(94.209375 65.73625)scale(0.1 -0.1)">
      <defs>
       <path id="STIXGeneral-Regular-33" d="M 390 3264 
L 288 3290 
Q 435 3770 748 4048 
Q 1062 4326 1542 4326 
Q 1990 4326 2265 4083 
Q 2541 3840 2541 3450 
Q 2541 2925 1946 2566 
Q 2298 2413 2477 2227 
Q 2758 1914 2758 1402 
Q 2758 890 2464 506 
Q 2246 211 1840 60 
Q 1434 -90 979 -90 
Q 262 -90 262 275 
Q 262 378 339 442 
Q 416 506 525 506 
Q 685 506 915 339 
Q 1197 141 1466 141 
Q 1818 141 2058 425 
Q 2298 710 2298 1120 
Q 2298 1856 1632 2048 
Q 1434 2112 979 2112 
L 979 2202 
Q 1338 2323 1517 2432 
Q 2035 2726 2035 3290 
Q 2035 3610 1852 3776 
Q 1670 3942 1344 3942 
Q 768 3942 390 3264 
z
" transform="scale(0.015625)"/>
      </defs>
      <use xlink:href="#STIXGeneral-Regular-4f"/>
      <use xlink:href="#STIXGeneral-Regular-50" x="72.199982"/>
      <use xlink:href="#STIXGeneral-Regular-46" x="127.899979"/>
      <use xlink:href="#STIXGeneral-Regular-33" x="183.499969"/>
     </g>
    </g>
   </g>
  </g>
 </g>
 <defs>
  <clipPath id="pf063733e76">
   <rect x="57.209375" y="21.395625" width="334.8" height="217.44"/>
  </clipPath>
 </defs>
</svg>
