<?xml version="1.0" encoding="UTF-8" standalone="no"?>
<!DOCTYPE svg PUBLIC "-//W3C//DTD SVG 1.1//EN"
 "http://www.w3.org/Graphics/SVG/1.1/DTD/svg11.dtd">
<!-- Generated by graphviz version 2.40.1 (20161225.0304)
 -->
<!-- Title: %3 Pages: 1 -->
<svg width="558pt" height="241pt"
 viewBox="0.00 0.00 558.45 241.22" xmlns="http://www.w3.org/2000/svg" xmlns:xlink="http://www.w3.org/1999/xlink">
<g id="graph0" class="graph" transform="scale(1 1) rotate(0) translate(4 237.2203)">
<title>%3</title>
<polygon fill="#ffffff" stroke="transparent" points="-4,4 -4,-237.2203 554.4508,-237.2203 554.4508,4 -4,4"/>
<!-- ETH -->
<g id="node1" class="node">
<title>ETH</title>
<ellipse fill="none" stroke="#000000" cx="62.2254" cy="-116.6102" rx="62.4516" ry="26.7407"/>
<text text-anchor="middle" x="62.2254" y="-120.4102" font-family="Times,serif" font-size="14.00" fill="#000000">ETH</text>
<text text-anchor="middle" x="62.2254" y="-105.4102" font-family="Times,serif" font-size="14.00" fill="#000000">0.00029457</text>
</g>
<!-- USD&#45;SRC -->
<g id="node2" class="node">
<title>USD&#45;SRC</title>
<ellipse fill="none" stroke="#000000" cx="275.2254" cy="-206.3503" rx="62.4516" ry="26.7407"/>
<text text-anchor="middle" x="275.2254" y="-210.1503" font-family="Times,serif" font-size="14.00" fill="#000000">USD&#45;SRC</text>
<text text-anchor="middle" x="275.2254" y="-195.1503" font-family="Times,serif" font-size="14.00" fill="#000000">1.00000000</text>
</g>
<!-- USD&#45;SRC&#45;&gt;ETH -->
<g id="edge1" class="edge">
<title>USD&#45;SRC&#45;&gt;ETH</title>
<path fill="none" stroke="#000000" d="M230.5736,-187.5378C197.2029,-173.4782 151.4342,-154.1952 116.0418,-139.2838"/>
<polygon fill="#000000" stroke="#000000" points="117.3928,-136.0551 106.8184,-135.3979 114.6749,-142.506 117.3928,-136.0551"/>
</g>
<!-- BTC -->
<g id="node3" class="node">
<title>BTC</title>
<ellipse fill="none" stroke="#000000" cx="204.2254" cy="-116.6102" rx="62.4516" ry="26.7407"/>
<text text-anchor="middle" x="204.2254" y="-120.4102" font-family="Times,serif" font-size="14.00" fill="#000000">BTC</text>
<text text-anchor="middle" x="204.2254" y="-105.4102" font-family="Times,serif" font-size="14.00" fill="#000000">0.00002091</text>
</g>
<!-- USD&#45;SRC&#45;&gt;BTC -->
<g id="edge2" class="edge">
<title>USD&#45;SRC&#45;&gt;BTC</title>
<path fill="none" stroke="#000000" d="M255.0696,-180.8744C247.4998,-171.3066 238.7773,-160.282 230.7181,-150.0955"/>
<polygon fill="#000000" stroke="#000000" points="233.3811,-147.8205 224.4316,-142.1497 227.8915,-152.1638 233.3811,-147.8205"/>
</g>
<!-- BUSD -->
<g id="node4" class="node">
<title>BUSD</title>
<ellipse fill="none" stroke="#000000" cx="346.2254" cy="-116.6102" rx="62.4516" ry="26.7407"/>
<text text-anchor="middle" x="346.2254" y="-120.4102" font-family="Times,serif" font-size="14.00" fill="#000000">BUSD</text>
<text text-anchor="middle" x="346.2254" y="-105.4102" font-family="Times,serif" font-size="14.00" fill="#000000">1.00000000</text>
</g>
<!-- USD&#45;SRC&#45;&gt;BUSD -->
<g id="edge3" class="edge">
<title>USD&#45;SRC&#45;&gt;BUSD</title>
<path fill="none" stroke="#000000" d="M295.3812,-180.8744C302.951,-171.3066 311.6734,-160.282 319.7327,-150.0955"/>
<polygon fill="#000000" stroke="#000000" points="322.5593,-152.1638 326.0192,-142.1497 317.0696,-147.8205 322.5593,-152.1638"/>
</g>
<!-- USDC -->
<g id="node5" class="node">
<title>USDC</title>
<ellipse fill="none" stroke="#000000" cx="488.2254" cy="-116.6102" rx="62.4516" ry="26.7407"/>
<text text-anchor="middle" x="488.2254" y="-120.4102" font-family="Times,serif" font-size="14.00" fill="#000000">USDC</text>
<text text-anchor="middle" x="488.2254" y="-105.4102" font-family="Times,serif" font-size="14.00" fill="#000000">1.00000000</text>
</g>
<!-- USD&#45;SRC&#45;&gt;USDC -->
<g id="edge4" class="edge">
<title>USD&#45;SRC&#45;&gt;USDC</title>
<path fill="none" stroke="#000000" d="M319.8772,-187.5378C353.2479,-173.4782 399.0166,-154.1952 434.409,-139.2838"/>
<polygon fill="#000000" stroke="#000000" points="435.7758,-142.506 443.6324,-135.3979 433.058,-136.0551 435.7758,-142.506"/>
</g>
<!-- USDT -->
<g id="node6" class="node">
<title>USDT</title>
<ellipse fill="none" stroke="#000000" cx="133.2254" cy="-26.8701" rx="62.4516" ry="26.7407"/>
<text text-anchor="middle" x="133.2254" y="-30.6701" font-family="Times,serif" font-size="14.00" fill="#000000">USDT</text>
<text text-anchor="middle" x="133.2254" y="-15.6701" font-family="Times,serif" font-size="14.00" fill="#000000">0.99952359</text>
</g>
<!-- BTC&#45;&gt;USDT -->
<g id="edge5" class="edge">
<title>BTC&#45;&gt;USDT</title>
<path fill="none" stroke="#000000" d="M184.0696,-91.1343C176.4998,-81.5665 167.7773,-70.5418 159.7181,-60.3554"/>
<polygon fill="#000000" stroke="#000000" points="162.3811,-58.0804 153.4316,-52.4096 156.8915,-62.4236 162.3811,-58.0804"/>
</g>
<!-- USD&#45;DST -->
<g id="node7" class="node">
<title>USD&#45;DST</title>
<ellipse fill="none" stroke="#000000" cx="275.2254" cy="-26.8701" rx="62.4516" ry="26.7407"/>
<text text-anchor="middle" x="275.2254" y="-30.6701" font-family="Times,serif" font-size="14.00" fill="#000000">USD&#45;DST</text>
<text text-anchor="middle" x="275.2254" y="-15.6701" font-family="Times,serif" font-size="14.00" fill="#000000">0.99994981</text>
</g>
<!-- BTC&#45;&gt;USD&#45;DST -->
<g id="edge6" class="edge">
<title>BTC&#45;&gt;USD&#45;DST</title>
<path fill="none" stroke="#000000" d="M224.3812,-91.1343C231.951,-81.5665 240.6734,-70.5418 248.7327,-60.3554"/>
<polygon fill="#000000" stroke="#000000" points="251.5593,-62.4236 255.0192,-52.4096 246.0696,-58.0804 251.5593,-62.4236"/>
</g>
</g>
</svg>
