<?xml version="1.0" encoding="UTF-8" standalone="no"?>
<!DOCTYPE svg PUBLIC "-//W3C//DTD SVG 1.1//EN"
 "http://www.w3.org/Graphics/SVG/1.1/DTD/svg11.dtd">
<!-- Generated by graphviz version 2.40.1 (20161225.0304)
 -->
<!-- Title: %3 Pages: 1 -->
<svg width="488pt" height="188pt"
 viewBox="0.00 0.00 487.74 188.00" xmlns="http://www.w3.org/2000/svg" xmlns:xlink="http://www.w3.org/1999/xlink">
<g id="graph0" class="graph" transform="scale(1 1) rotate(0) translate(4 184)">
<title>%3</title>
<polygon fill="#ffffff" stroke="transparent" points="-4,4 -4,-184 483.7445,-184 483.7445,4 -4,4"/>
<!-- USD -->
<g id="node1" class="node">
<title>USD</title>
<ellipse fill="none" stroke="#000000" cx="59.5473" cy="-162" rx="29.795" ry="18"/>
<text text-anchor="middle" x="59.5473" y="-158.3" font-family="Times,serif" font-size="14.00" fill="#000000">USD</text>
</g>
<!-- CAD -->
<g id="node6" class="node">
<title>CAD</title>
<ellipse fill="none" stroke="#000000" cx="30.5473" cy="-90" rx="30.5947" ry="18"/>
<text text-anchor="middle" x="30.5473" y="-86.3" font-family="Times,serif" font-size="14.00" fill="#000000">CAD</text>
</g>
<!-- USD&#45;&gt;CAD -->
<g id="edge3" class="edge">
<title>USD&#45;&gt;CAD</title>
<path fill="none" stroke="#000000" d="M52.3787,-144.2022C49.0776,-136.0064 45.0885,-126.1024 41.4281,-117.0145"/>
<polygon fill="#000000" stroke="#000000" points="44.6161,-115.5612 37.6334,-107.593 38.123,-118.1766 44.6161,-115.5612"/>
</g>
<!-- EUR -->
<g id="node2" class="node">
<title>EUR</title>
<ellipse fill="none" stroke="#000000" cx="137.5473" cy="-162" rx="29.795" ry="18"/>
<text text-anchor="middle" x="137.5473" y="-158.3" font-family="Times,serif" font-size="14.00" fill="#000000">EUR</text>
</g>
<!-- JPY -->
<g id="node3" class="node">
<title>JPY</title>
<ellipse fill="none" stroke="#000000" cx="59.5473" cy="-18" rx="27" ry="18"/>
<text text-anchor="middle" x="59.5473" y="-14.3" font-family="Times,serif" font-size="14.00" fill="#000000">JPY</text>
</g>
<!-- JPY&#45;&gt;USD -->
<g id="edge1" class="edge">
<title>JPY&#45;&gt;USD</title>
<path fill="none" stroke="#000000" d="M64.126,-35.8615C66.5689,-46.3153 69.3189,-59.8153 70.5473,-72 72.1522,-87.9193 72.1522,-92.0807 70.5473,-108 69.6836,-116.5673 68.0676,-125.785 66.335,-134.1368"/>
<polygon fill="#000000" stroke="#000000" points="62.8651,-133.619 64.126,-144.1385 69.7004,-135.1287 62.8651,-133.619"/>
</g>
<!-- GBP -->
<g id="node4" class="node">
<title>GBP</title>
<ellipse fill="none" stroke="#000000" cx="214.5473" cy="-162" rx="29.4969" ry="18"/>
<text text-anchor="middle" x="214.5473" y="-158.3" font-family="Times,serif" font-size="14.00" fill="#000000">GBP</text>
</g>
<!-- CHF -->
<g id="node5" class="node">
<title>CHF</title>
<ellipse fill="none" stroke="#000000" cx="290.5473" cy="-162" rx="29.4969" ry="18"/>
<text text-anchor="middle" x="290.5473" y="-158.3" font-family="Times,serif" font-size="14.00" fill="#000000">CHF</text>
</g>
<!-- CAD&#45;&gt;JPY -->
<g id="edge2" class="edge">
<title>CAD&#45;&gt;JPY</title>
<path fill="none" stroke="#000000" d="M37.7158,-72.2022C41.0169,-64.0064 45.0061,-54.1024 48.6664,-45.0145"/>
<polygon fill="#000000" stroke="#000000" points="51.9716,-46.1766 52.4612,-35.593 45.4785,-43.5612 51.9716,-46.1766"/>
</g>
<!-- AUD -->
<g id="node7" class="node">
<title>AUD</title>
<ellipse fill="none" stroke="#000000" cx="368.5473" cy="-162" rx="31.3957" ry="18"/>
<text text-anchor="middle" x="368.5473" y="-158.3" font-family="Times,serif" font-size="14.00" fill="#000000">AUD</text>
</g>
<!-- HKD -->
<g id="node8" class="node">
<title>HKD</title>
<ellipse fill="none" stroke="#000000" cx="448.5473" cy="-162" rx="31.3957" ry="18"/>
<text text-anchor="middle" x="448.5473" y="-158.3" font-family="Times,serif" font-size="14.00" fill="#000000">HKD</text>
</g>
</g>
</svg>
