<?xml version="1.0" encoding="UTF-8" standalone="no"?>
<!DOCTYPE svg PUBLIC "-//W3C//DTD SVG 1.1//EN"
 "http://www.w3.org/Graphics/SVG/1.1/DTD/svg11.dtd">
<!-- Generated by graphviz version 2.40.1 (20161225.0304)
 -->
<!-- Title: %3 Pages: 1 -->
<svg width="1026pt" height="170pt"
 viewBox="0.00 0.00 1026.00 170.00" xmlns="http://www.w3.org/2000/svg" xmlns:xlink="http://www.w3.org/1999/xlink">
<g id="graph0" class="graph" transform="scale(1 1) rotate(0) translate(4 166)">
<title>%3</title>
<polygon fill="#ffffff" stroke="transparent" points="-4,4 -4,-166 1022,-166 1022,4 -4,4"/>
<!-- Terminal A -->
<g id="node1" class="node">
<title>Terminal A</title>
<polygon fill="#add8e6" stroke="#000000" points="257,-162 159,-162 159,-110 257,-110 257,-162"/>
<text text-anchor="middle" x="208" y="-150" font-family="Times,serif" font-size="10.00" fill="#000000">Terminal A</text>
<text text-anchor="middle" x="208" y="-139" font-family="Times,serif" font-size="10.00" fill="#000000">supply = 100000</text>
<text text-anchor="middle" x="208" y="-128" font-family="Times,serif" font-size="10.00" fill="#000000">shipped = 100000.0</text>
<text text-anchor="middle" x="208" y="-117" font-family="Times,serif" font-size="10.00" fill="#000000">sens &#160;= &#45;0.0045</text>
</g>
<!-- Alice -->
<g id="node4" class="node">
<title>Alice</title>
<polygon fill="#ffd700" stroke="#000000" points="92,-52 0,-52 0,0 92,0 92,-52"/>
<text text-anchor="middle" x="46" y="-40" font-family="Times,serif" font-size="10.00" fill="#000000">Alice</text>
<text text-anchor="middle" x="46" y="-29" font-family="Times,serif" font-size="10.00" fill="#000000">demand = 30000</text>
<text text-anchor="middle" x="46" y="-18" font-family="Times,serif" font-size="10.00" fill="#000000">shipped = 30000.0</text>
<text text-anchor="middle" x="46" y="-7" font-family="Times,serif" font-size="10.00" fill="#000000">sens &#160;= 0.0875</text>
</g>
<!-- Terminal A&#45;&gt;Alice -->
<g id="edge1" class="edge">
<title>Terminal A&#45;&gt;Alice</title>
<path fill="none" stroke="#000000" d="M158.7711,-129.7114C131.2781,-123.9485 98.0281,-112.9485 75,-92 66.1209,-83.9228 59.8245,-72.6344 55.4218,-61.6746"/>
<polygon fill="#000000" stroke="#000000" points="58.6987,-60.4438 52.0229,-52.2167 52.1112,-62.8112 58.6987,-60.4438"/>
<text text-anchor="middle" x="113" y="-84" font-family="Times,serif" font-size="10.00" fill="#000000">rate = 8.3</text>
<text text-anchor="middle" x="113" y="-73" font-family="Times,serif" font-size="10.00" fill="#000000">shipped = 30000.0</text>
</g>
<!-- Badri -->
<g id="node5" class="node">
<title>Badri</title>
<polygon fill="#ffd700" stroke="#000000" points="202,-52 110,-52 110,0 202,0 202,-52"/>
<text text-anchor="middle" x="156" y="-40" font-family="Times,serif" font-size="10.00" fill="#000000">Badri</text>
<text text-anchor="middle" x="156" y="-29" font-family="Times,serif" font-size="10.00" fill="#000000">demand = 40000</text>
<text text-anchor="middle" x="156" y="-18" font-family="Times,serif" font-size="10.00" fill="#000000">shipped = 40000.0</text>
<text text-anchor="middle" x="156" y="-7" font-family="Times,serif" font-size="10.00" fill="#000000">sens &#160;= 0.0855</text>
</g>
<!-- Terminal A&#45;&gt;Badri -->
<g id="edge2" class="edge">
<title>Terminal A&#45;&gt;Badri</title>
<path fill="none" stroke="#000000" d="M174.3697,-109.6266C169.4814,-104.307 165.0709,-98.3713 162,-92 157.6249,-82.923 155.5411,-72.3323 154.6929,-62.3258"/>
<polygon fill="#000000" stroke="#000000" points="158.1824,-62.0203 154.212,-52.1976 151.1903,-62.3523 158.1824,-62.0203"/>
<text text-anchor="middle" x="200" y="-84" font-family="Times,serif" font-size="10.00" fill="#000000">rate = 8.1</text>
<text text-anchor="middle" x="200" y="-73" font-family="Times,serif" font-size="10.00" fill="#000000">shipped = 40000.0</text>
</g>
<!-- Cara -->
<g id="node6" class="node">
<title>Cara</title>
<polygon fill="#ffd700" stroke="#000000" points="453,-52 361,-52 361,0 453,0 453,-52"/>
<text text-anchor="middle" x="407" y="-40" font-family="Times,serif" font-size="10.00" fill="#000000">Cara</text>
<text text-anchor="middle" x="407" y="-29" font-family="Times,serif" font-size="10.00" fill="#000000">demand = 50000</text>
<text text-anchor="middle" x="407" y="-18" font-family="Times,serif" font-size="10.00" fill="#000000">shipped = 50000.0</text>
<text text-anchor="middle" x="407" y="-7" font-family="Times,serif" font-size="10.00" fill="#000000">sens &#160;= 0.0875</text>
</g>
<!-- Terminal A&#45;&gt;Cara -->
<g id="edge3" class="edge">
<title>Terminal A&#45;&gt;Cara</title>
<path fill="none" stroke="#000000" d="M257.2914,-122.1782C279.6721,-114.8482 305.9982,-104.7061 328,-92 343.9129,-82.8102 359.7872,-70.3556 373.0869,-58.7412"/>
<polygon fill="#000000" stroke="#000000" points="375.4735,-61.3024 380.6009,-52.0309 370.8109,-56.0813 375.4735,-61.3024"/>
<text text-anchor="middle" x="396" y="-84" font-family="Times,serif" font-size="10.00" fill="#000000">rate = 8.3</text>
<text text-anchor="middle" x="396" y="-73" font-family="Times,serif" font-size="10.00" fill="#000000">shipped = 12000.0</text>
</g>
<!-- Helen -->
<g id="node11" class="node">
<title>Helen</title>
<polygon fill="#ffd700" stroke="#000000" points="312,-52 220,-52 220,0 312,0 312,-52"/>
<text text-anchor="middle" x="266" y="-40" font-family="Times,serif" font-size="10.00" fill="#000000">Helen</text>
<text text-anchor="middle" x="266" y="-29" font-family="Times,serif" font-size="10.00" fill="#000000">demand = 18000</text>
<text text-anchor="middle" x="266" y="-18" font-family="Times,serif" font-size="10.00" fill="#000000">shipped = 18000.0</text>
<text text-anchor="middle" x="266" y="-7" font-family="Times,serif" font-size="10.00" fill="#000000">sens &#160;= 0.0795</text>
</g>
<!-- Terminal A&#45;&gt;Helen -->
<g id="edge4" class="edge">
<title>Terminal A&#45;&gt;Helen</title>
<path fill="none" stroke="#000000" d="M227.2712,-109.5383C231.0408,-103.8789 234.8096,-97.8424 238,-92 243.244,-82.397 248.1881,-71.6068 252.42,-61.577"/>
<polygon fill="#000000" stroke="#000000" points="255.6859,-62.8375 256.2456,-52.2575 249.2103,-60.1792 255.6859,-62.8375"/>
<text text-anchor="middle" x="286" y="-84" font-family="Times,serif" font-size="10.00" fill="#000000">rate = 7.5</text>
<text text-anchor="middle" x="286" y="-73" font-family="Times,serif" font-size="10.00" fill="#000000">shipped = 18000.0</text>
</g>
<!-- Terminal B -->
<g id="node2" class="node">
<title>Terminal B</title>
<polygon fill="#add8e6" stroke="#000000" points="952,-162 860,-162 860,-110 952,-110 952,-162"/>
<text text-anchor="middle" x="906" y="-150" font-family="Times,serif" font-size="10.00" fill="#000000">Terminal B</text>
<text text-anchor="middle" x="906" y="-139" font-family="Times,serif" font-size="10.00" fill="#000000">supply = 80000</text>
<text text-anchor="middle" x="906" y="-128" font-family="Times,serif" font-size="10.00" fill="#000000">shipped = 80000.0</text>
<text text-anchor="middle" x="906" y="-117" font-family="Times,serif" font-size="10.00" fill="#000000">sens &#160;= &#45;0.0075</text>
</g>
<!-- Dan -->
<g id="node7" class="node">
<title>Dan</title>
<polygon fill="#ffd700" stroke="#000000" points="1002,-52 910,-52 910,0 1002,0 1002,-52"/>
<text text-anchor="middle" x="956" y="-40" font-family="Times,serif" font-size="10.00" fill="#000000">Dan</text>
<text text-anchor="middle" x="956" y="-29" font-family="Times,serif" font-size="10.00" fill="#000000">demand = 20000</text>
<text text-anchor="middle" x="956" y="-18" font-family="Times,serif" font-size="10.00" fill="#000000">shipped = 20000.0</text>
<text text-anchor="middle" x="956" y="-7" font-family="Times,serif" font-size="10.00" fill="#000000">sens &#160;= 0.0875</text>
</g>
<!-- Terminal B&#45;&gt;Dan -->
<g id="edge5" class="edge">
<title>Terminal B&#45;&gt;Dan</title>
<path fill="none" stroke="#000000" d="M924.2591,-109.6065C927.7576,-103.9422 931.1982,-97.8864 934,-92 938.516,-82.5119 942.5034,-71.8502 945.7999,-61.9083"/>
<polygon fill="#000000" stroke="#000000" points="949.1677,-62.8669 948.8601,-52.2766 942.4964,-60.7473 949.1677,-62.8669"/>
<text text-anchor="middle" x="980" y="-84" font-family="Times,serif" font-size="10.00" fill="#000000">rate = 8.0</text>
<text text-anchor="middle" x="980" y="-73" font-family="Times,serif" font-size="10.00" fill="#000000">shipped = 20000.0</text>
</g>
<!-- Grace -->
<g id="node10" class="node">
<title>Grace</title>
<polygon fill="#ffd700" stroke="#000000" points="857,-52 765,-52 765,0 857,0 857,-52"/>
<text text-anchor="middle" x="811" y="-40" font-family="Times,serif" font-size="10.00" fill="#000000">Grace</text>
<text text-anchor="middle" x="811" y="-29" font-family="Times,serif" font-size="10.00" fill="#000000">demand = 80000</text>
<text text-anchor="middle" x="811" y="-18" font-family="Times,serif" font-size="10.00" fill="#000000">shipped = 80000.0</text>
<text text-anchor="middle" x="811" y="-7" font-family="Times,serif" font-size="10.00" fill="#000000">sens &#160;= 0.0875</text>
</g>
<!-- Terminal B&#45;&gt;Grace -->
<g id="edge6" class="edge">
<title>Terminal B&#45;&gt;Grace</title>
<path fill="none" stroke="#000000" d="M872.2115,-109.9005C865.8468,-104.3097 859.4771,-98.2072 854,-92 845.6587,-82.5467 837.7488,-71.3431 831.0412,-60.8757"/>
<polygon fill="#000000" stroke="#000000" points="833.9644,-58.9486 825.7067,-52.3108 828.0226,-62.6494 833.9644,-58.9486"/>
<text text-anchor="middle" x="892" y="-84" font-family="Times,serif" font-size="10.00" fill="#000000">rate = 8.0</text>
<text text-anchor="middle" x="892" y="-73" font-family="Times,serif" font-size="10.00" fill="#000000">shipped = 60000.0</text>
</g>
<!-- Incumbant -->
<g id="node3" class="node">
<title>Incumbant</title>
<polygon fill="#add8e6" stroke="#000000" points="659,-162 561,-162 561,-110 659,-110 659,-162"/>
<text text-anchor="middle" x="610" y="-150" font-family="Times,serif" font-size="10.00" fill="#000000">Incumbant</text>
<text text-anchor="middle" x="610" y="-139" font-family="Times,serif" font-size="10.00" fill="#000000">supply = 500000</text>
<text text-anchor="middle" x="610" y="-128" font-family="Times,serif" font-size="10.00" fill="#000000">shipped = 133000.0</text>
<text text-anchor="middle" x="610" y="-117" font-family="Times,serif" font-size="10.00" fill="#000000">sens &#160;= 0.0</text>
</g>
<!-- Incumbant&#45;&gt;Cara -->
<g id="edge7" class="edge">
<title>Incumbant&#45;&gt;Cara</title>
<path fill="none" stroke="#000000" d="M560.767,-126.9211C532.6893,-120.2282 497.6893,-109.2282 470,-92 456.4495,-83.5689 443.8069,-71.5516 433.4564,-60.0766"/>
<polygon fill="#000000" stroke="#000000" points="435.8746,-57.5233 426.6739,-52.2698 430.5903,-62.1143 435.8746,-57.5233"/>
<text text-anchor="middle" x="508" y="-84" font-family="Times,serif" font-size="10.00" fill="#000000">rate = 8.75</text>
<text text-anchor="middle" x="508" y="-73" font-family="Times,serif" font-size="10.00" fill="#000000">shipped = 38000.0</text>
</g>
<!-- Emma -->
<g id="node8" class="node">
<title>Emma</title>
<polygon fill="#ffd700" stroke="#000000" points="708,-52 616,-52 616,0 708,0 708,-52"/>
<text text-anchor="middle" x="662" y="-40" font-family="Times,serif" font-size="10.00" fill="#000000">Emma</text>
<text text-anchor="middle" x="662" y="-29" font-family="Times,serif" font-size="10.00" fill="#000000">demand = 30000</text>
<text text-anchor="middle" x="662" y="-18" font-family="Times,serif" font-size="10.00" fill="#000000">shipped = 30000.0</text>
<text text-anchor="middle" x="662" y="-7" font-family="Times,serif" font-size="10.00" fill="#000000">sens &#160;= 0.0875</text>
</g>
<!-- Incumbant&#45;&gt;Emma -->
<g id="edge8" class="edge">
<title>Incumbant&#45;&gt;Emma</title>
<path fill="none" stroke="#000000" d="M627.1056,-109.9318C630.5893,-104.1421 634.078,-97.9538 637,-92 641.6965,-82.4304 646.0882,-71.7425 649.8398,-61.8017"/>
<polygon fill="#000000" stroke="#000000" points="653.2115,-62.7727 653.3657,-52.179 646.6388,-60.3644 653.2115,-62.7727"/>
<text text-anchor="middle" x="684" y="-84" font-family="Times,serif" font-size="10.00" fill="#000000">rate = 8.75</text>
<text text-anchor="middle" x="684" y="-73" font-family="Times,serif" font-size="10.00" fill="#000000">shipped = 30000.0</text>
</g>
<!-- Fujita -->
<g id="node9" class="node">
<title>Fujita</title>
<polygon fill="#ffd700" stroke="#000000" points="598,-52 506,-52 506,0 598,0 598,-52"/>
<text text-anchor="middle" x="552" y="-40" font-family="Times,serif" font-size="10.00" fill="#000000">Fujita</text>
<text text-anchor="middle" x="552" y="-29" font-family="Times,serif" font-size="10.00" fill="#000000">demand = 45000</text>
<text text-anchor="middle" x="552" y="-18" font-family="Times,serif" font-size="10.00" fill="#000000">shipped = 45000.0</text>
<text text-anchor="middle" x="552" y="-7" font-family="Times,serif" font-size="10.00" fill="#000000">sens &#160;= 0.0875</text>
</g>
<!-- Incumbant&#45;&gt;Fujita -->
<g id="edge9" class="edge">
<title>Incumbant&#45;&gt;Fujita</title>
<path fill="none" stroke="#000000" d="M570.6825,-109.842C565.2658,-104.5654 560.4026,-98.5877 557,-92 552.3425,-82.9827 550.3036,-72.3317 549.6308,-62.2475"/>
<polygon fill="#000000" stroke="#000000" points="553.1243,-61.9441 549.3716,-52.0361 546.1265,-62.1217 553.1243,-61.9441"/>
<text text-anchor="middle" x="595" y="-84" font-family="Times,serif" font-size="10.00" fill="#000000">rate = 8.75</text>
<text text-anchor="middle" x="595" y="-73" font-family="Times,serif" font-size="10.00" fill="#000000">shipped = 45000.0</text>
</g>
<!-- Incumbant&#45;&gt;Grace -->
<g id="edge10" class="edge">
<title>Incumbant&#45;&gt;Grace</title>
<path fill="none" stroke="#000000" d="M659.1344,-121.0035C680.3514,-113.615 705.0565,-103.7531 726,-92 735.5371,-86.648 754.1274,-72.3885 771.4963,-58.4876"/>
<polygon fill="#000000" stroke="#000000" points="773.7609,-61.1577 779.3537,-52.1593 769.3701,-55.706 773.7609,-61.1577"/>
<text text-anchor="middle" x="793" y="-84" font-family="Times,serif" font-size="10.00" fill="#000000">rate = 8.75</text>
<text text-anchor="middle" x="793" y="-73" font-family="Times,serif" font-size="10.00" fill="#000000">shipped = 20000.0</text>
</g>
</g>
</svg>
