<?xml version="1.0" encoding="UTF-8" standalone="no"?>
<!DOCTYPE svg PUBLIC "-//W3C//DTD SVG 1.1//EN"
 "http://www.w3.org/Graphics/SVG/1.1/DTD/svg11.dtd">
<!-- Generated by graphviz version 9.0.0 (20230911.1827)
 -->
<!-- Pages: 1 -->
<svg width="1038pt" height="173pt"
 viewBox="0.00 0.00 1037.75 172.50" xmlns="http://www.w3.org/2000/svg" xmlns:xlink="http://www.w3.org/1999/xlink">
<g id="graph0" class="graph" transform="scale(1 1) rotate(0) translate(4 168.5)">
<polygon fill="white" stroke="none" points="-4,4 -4,-168.5 1033.75,-168.5 1033.75,4 -4,4"/>
<!-- Terminal A -->
<g id="node1" class="node">
<title>Terminal A</title>
<polygon fill="lightblue" stroke="black" points="261.12,-164.5 163.38,-164.5 163.38,-111.5 261.12,-111.5 261.12,-164.5"/>
<text text-anchor="middle" x="212.25" y="-151" font-family="Times,serif" font-size="10.00">Terminal A</text>
<text text-anchor="middle" x="212.25" y="-139.75" font-family="Times,serif" font-size="10.00">supply = 100000</text>
<text text-anchor="middle" x="212.25" y="-128.5" font-family="Times,serif" font-size="10.00">shipped = 100000.0</text>
<text text-anchor="middle" x="212.25" y="-117.25" font-family="Times,serif" font-size="10.00">sens &#160;= &#45;0.0045</text>
</g>
<!-- Alice -->
<g id="node4" class="node">
<title>Alice</title>
<polygon fill="gold" stroke="black" points="92.5,-53 0,-53 0,0 92.5,0 92.5,-53"/>
<text text-anchor="middle" x="46.25" y="-39.5" font-family="Times,serif" font-size="10.00">Alice</text>
<text text-anchor="middle" x="46.25" y="-28.25" font-family="Times,serif" font-size="10.00">demand = 30000</text>
<text text-anchor="middle" x="46.25" y="-17" font-family="Times,serif" font-size="10.00">shipped = 30000.0</text>
<text text-anchor="middle" x="46.25" y="-5.75" font-family="Times,serif" font-size="10.00">sens &#160;= 0.0875</text>
</g>
<!-- Terminal A&#45;&gt;Alice -->
<g id="edge1" class="edge">
<title>Terminal A&#45;&gt;Alice</title>
<path fill="none" stroke="black" d="M162.92,-131.1C134.84,-125.5 100.62,-114.62 76.75,-93.5 67.89,-85.66 61.42,-74.71 56.79,-63.98"/>
<polygon fill="black" stroke="black" points="60.14,-62.94 53.29,-54.86 53.61,-65.45 60.14,-62.94"/>
<text text-anchor="middle" x="115.5" y="-84" font-family="Times,serif" font-size="10.00">rate = 8.3</text>
<text text-anchor="middle" x="115.5" y="-72.75" font-family="Times,serif" font-size="10.00">shipped = 30000.0</text>
</g>
<!-- Badri -->
<g id="node5" class="node">
<title>Badri</title>
<polygon fill="gold" stroke="black" points="203.5,-53 111,-53 111,0 203.5,0 203.5,-53"/>
<text text-anchor="middle" x="157.25" y="-39.5" font-family="Times,serif" font-size="10.00">Badri</text>
<text text-anchor="middle" x="157.25" y="-28.25" font-family="Times,serif" font-size="10.00">demand = 40000</text>
<text text-anchor="middle" x="157.25" y="-17" font-family="Times,serif" font-size="10.00">shipped = 40000.0</text>
<text text-anchor="middle" x="157.25" y="-5.75" font-family="Times,serif" font-size="10.00">sens &#160;= 0.0855</text>
</g>
<!-- Terminal A&#45;&gt;Badri -->
<g id="edge2" class="edge">
<title>Terminal A&#45;&gt;Badri</title>
<path fill="none" stroke="black" d="M176.85,-111.19C171.69,-105.9 167.02,-99.96 163.75,-93.5 159.35,-84.81 157.15,-74.66 156.17,-64.95"/>
<polygon fill="black" stroke="black" points="159.66,-64.77 155.61,-54.98 152.68,-65.17 159.66,-64.77"/>
<text text-anchor="middle" x="202.5" y="-84" font-family="Times,serif" font-size="10.00">rate = 8.1</text>
<text text-anchor="middle" x="202.5" y="-72.75" font-family="Times,serif" font-size="10.00">shipped = 40000.0</text>
</g>
<!-- Cara -->
<g id="node6" class="node">
<title>Cara</title>
<polygon fill="gold" stroke="black" points="461.5,-53 369,-53 369,0 461.5,0 461.5,-53"/>
<text text-anchor="middle" x="415.25" y="-39.5" font-family="Times,serif" font-size="10.00">Cara</text>
<text text-anchor="middle" x="415.25" y="-28.25" font-family="Times,serif" font-size="10.00">demand = 50000</text>
<text text-anchor="middle" x="415.25" y="-17" font-family="Times,serif" font-size="10.00">shipped = 50000.0</text>
<text text-anchor="middle" x="415.25" y="-5.75" font-family="Times,serif" font-size="10.00">sens &#160;= 0.0875</text>
</g>
<!-- Terminal A&#45;&gt;Cara -->
<g id="edge3" class="edge">
<title>Terminal A&#45;&gt;Cara</title>
<path fill="none" stroke="black" d="M261.54,-122.86C283.58,-115.58 309.44,-105.65 331.25,-93.5 347.6,-84.39 364.11,-72.21 378.11,-60.8"/>
<polygon fill="black" stroke="black" points="380.33,-63.51 385.77,-54.41 375.84,-58.13 380.33,-63.51"/>
<text text-anchor="middle" x="401.5" y="-84" font-family="Times,serif" font-size="10.00">rate = 8.3</text>
<text text-anchor="middle" x="401.5" y="-72.75" font-family="Times,serif" font-size="10.00">shipped = 12000.0</text>
</g>
<!-- Helen -->
<g id="node11" class="node">
<title>Helen</title>
<polygon fill="gold" stroke="black" points="314.5,-53 222,-53 222,0 314.5,0 314.5,-53"/>
<text text-anchor="middle" x="268.25" y="-39.5" font-family="Times,serif" font-size="10.00">Helen</text>
<text text-anchor="middle" x="268.25" y="-28.25" font-family="Times,serif" font-size="10.00">demand = 18000</text>
<text text-anchor="middle" x="268.25" y="-17" font-family="Times,serif" font-size="10.00">shipped = 18000.0</text>
<text text-anchor="middle" x="268.25" y="-5.75" font-family="Times,serif" font-size="10.00">sens &#160;= 0.0795</text>
</g>
<!-- Terminal A&#45;&gt;Helen -->
<g id="edge4" class="edge">
<title>Terminal A&#45;&gt;Helen</title>
<path fill="none" stroke="black" d="M229.87,-111.21C233.49,-105.49 237.14,-99.37 240.25,-93.5 245.2,-84.15 249.95,-73.73 254.08,-63.98"/>
<polygon fill="black" stroke="black" points="257.31,-65.34 257.89,-54.76 250.84,-62.66 257.31,-65.34"/>
<text text-anchor="middle" x="289.5" y="-84" font-family="Times,serif" font-size="10.00">rate = 7.5</text>
<text text-anchor="middle" x="289.5" y="-72.75" font-family="Times,serif" font-size="10.00">shipped = 18000.0</text>
</g>
<!-- Terminal B -->
<g id="node2" class="node">
<title>Terminal B</title>
<polygon fill="lightblue" stroke="black" points="963.5,-164.5 871,-164.5 871,-111.5 963.5,-111.5 963.5,-164.5"/>
<text text-anchor="middle" x="917.25" y="-151" font-family="Times,serif" font-size="10.00">Terminal B</text>
<text text-anchor="middle" x="917.25" y="-139.75" font-family="Times,serif" font-size="10.00">supply = 80000</text>
<text text-anchor="middle" x="917.25" y="-128.5" font-family="Times,serif" font-size="10.00">shipped = 80000.0</text>
<text text-anchor="middle" x="917.25" y="-117.25" font-family="Times,serif" font-size="10.00">sens &#160;= &#45;0.0075</text>
</g>
<!-- Dan -->
<g id="node7" class="node">
<title>Dan</title>
<polygon fill="gold" stroke="black" points="1013.5,-53 921,-53 921,0 1013.5,0 1013.5,-53"/>
<text text-anchor="middle" x="967.25" y="-39.5" font-family="Times,serif" font-size="10.00">Dan</text>
<text text-anchor="middle" x="967.25" y="-28.25" font-family="Times,serif" font-size="10.00">demand = 20000</text>
<text text-anchor="middle" x="967.25" y="-17" font-family="Times,serif" font-size="10.00">shipped = 20000.0</text>
<text text-anchor="middle" x="967.25" y="-5.75" font-family="Times,serif" font-size="10.00">sens &#160;= 0.0875</text>
</g>
<!-- Terminal B&#45;&gt;Dan -->
<g id="edge5" class="edge">
<title>Terminal B&#45;&gt;Dan</title>
<path fill="none" stroke="black" d="M935.23,-111.39C938.83,-105.66 942.38,-99.49 945.25,-93.5 949.64,-84.34 953.52,-74.08 956.75,-64.42"/>
<polygon fill="black" stroke="black" points="960.08,-65.5 959.78,-54.91 953.41,-63.38 960.08,-65.5"/>
<text text-anchor="middle" x="991.5" y="-84" font-family="Times,serif" font-size="10.00">rate = 8.0</text>
<text text-anchor="middle" x="991.5" y="-72.75" font-family="Times,serif" font-size="10.00">shipped = 20000.0</text>
</g>
<!-- Grace -->
<g id="node10" class="node">
<title>Grace</title>
<polygon fill="gold" stroke="black" points="863.5,-53 771,-53 771,0 863.5,0 863.5,-53"/>
<text text-anchor="middle" x="817.25" y="-39.5" font-family="Times,serif" font-size="10.00">Grace</text>
<text text-anchor="middle" x="817.25" y="-28.25" font-family="Times,serif" font-size="10.00">demand = 80000</text>
<text text-anchor="middle" x="817.25" y="-17" font-family="Times,serif" font-size="10.00">shipped = 80000.0</text>
<text text-anchor="middle" x="817.25" y="-5.75" font-family="Times,serif" font-size="10.00">sens &#160;= 0.0875</text>
</g>
<!-- Terminal B&#45;&gt;Grace -->
<g id="edge6" class="edge">
<title>Terminal B&#45;&gt;Grace</title>
<path fill="none" stroke="black" d="M883.34,-111.07C876.89,-105.55 870.41,-99.55 864.75,-93.5 855.97,-84.1 847.42,-73.03 840.06,-62.67"/>
<polygon fill="black" stroke="black" points="843.08,-60.9 834.51,-54.67 837.33,-64.88 843.08,-60.9"/>
<text text-anchor="middle" x="902.5" y="-84" font-family="Times,serif" font-size="10.00">rate = 8.0</text>
<text text-anchor="middle" x="902.5" y="-72.75" font-family="Times,serif" font-size="10.00">shipped = 60000.0</text>
</g>
<!-- Current Supplier -->
<g id="node3" class="node">
<title>Current Supplier</title>
<polygon fill="lightblue" stroke="black" points="663.12,-164.5 565.38,-164.5 565.38,-111.5 663.12,-111.5 663.12,-164.5"/>
<text text-anchor="middle" x="614.25" y="-151" font-family="Times,serif" font-size="10.00">Current Supplier</text>
<text text-anchor="middle" x="614.25" y="-139.75" font-family="Times,serif" font-size="10.00">supply = 500000</text>
<text text-anchor="middle" x="614.25" y="-128.5" font-family="Times,serif" font-size="10.00">shipped = 133000.0</text>
<text text-anchor="middle" x="614.25" y="-117.25" font-family="Times,serif" font-size="10.00">sens &#160;= 0.0</text>
</g>
<!-- Current Supplier&#45;&gt;Cara -->
<g id="edge7" class="edge">
<title>Current Supplier&#45;&gt;Cara</title>
<path fill="none" stroke="black" d="M565,-126.65C538.98,-119.79 507.25,-109.11 481.75,-93.5 467.8,-84.96 454.54,-72.94 443.59,-61.49"/>
<polygon fill="black" stroke="black" points="446.43,-59.41 437.07,-54.43 441.28,-64.15 446.43,-59.41"/>
<text text-anchor="middle" x="520.5" y="-84" font-family="Times,serif" font-size="10.00">rate = 8.75</text>
<text text-anchor="middle" x="520.5" y="-72.75" font-family="Times,serif" font-size="10.00">shipped = 38000.0</text>
</g>
<!-- Emma -->
<g id="node8" class="node">
<title>Emma</title>
<polygon fill="gold" stroke="black" points="716.5,-53 624,-53 624,0 716.5,0 716.5,-53"/>
<text text-anchor="middle" x="670.25" y="-39.5" font-family="Times,serif" font-size="10.00">Emma</text>
<text text-anchor="middle" x="670.25" y="-28.25" font-family="Times,serif" font-size="10.00">demand = 30000</text>
<text text-anchor="middle" x="670.25" y="-17" font-family="Times,serif" font-size="10.00">shipped = 30000.0</text>
<text text-anchor="middle" x="670.25" y="-5.75" font-family="Times,serif" font-size="10.00">sens &#160;= 0.0875</text>
</g>
<!-- Current Supplier&#45;&gt;Emma -->
<g id="edge8" class="edge">
<title>Current Supplier&#45;&gt;Emma</title>
<path fill="none" stroke="black" d="M634.4,-111.01C638.28,-105.41 642.1,-99.39 645.25,-93.5 650.2,-84.23 654.64,-73.77 658.35,-63.95"/>
<polygon fill="black" stroke="black" points="661.6,-65.26 661.71,-54.67 655.02,-62.88 661.6,-65.26"/>
<text text-anchor="middle" x="693.5" y="-84" font-family="Times,serif" font-size="10.00">rate = 8.75</text>
<text text-anchor="middle" x="693.5" y="-72.75" font-family="Times,serif" font-size="10.00">shipped = 30000.0</text>
</g>
<!-- Fujita -->
<g id="node9" class="node">
<title>Fujita</title>
<polygon fill="gold" stroke="black" points="605.5,-53 513,-53 513,0 605.5,0 605.5,-53"/>
<text text-anchor="middle" x="559.25" y="-39.5" font-family="Times,serif" font-size="10.00">Fujita</text>
<text text-anchor="middle" x="559.25" y="-28.25" font-family="Times,serif" font-size="10.00">demand = 45000</text>
<text text-anchor="middle" x="559.25" y="-17" font-family="Times,serif" font-size="10.00">shipped = 45000.0</text>
<text text-anchor="middle" x="559.25" y="-5.75" font-family="Times,serif" font-size="10.00">sens &#160;= 0.0875</text>
</g>
<!-- Current Supplier&#45;&gt;Fujita -->
<g id="edge9" class="edge">
<title>Current Supplier&#45;&gt;Fujita</title>
<path fill="none" stroke="black" d="M581.72,-111.28C576.67,-105.91 572.05,-99.91 568.75,-93.5 564.22,-84.7 561.65,-74.41 560.25,-64.61"/>
<polygon fill="black" stroke="black" points="563.76,-64.54 559.24,-54.96 556.8,-65.27 563.76,-64.54"/>
<text text-anchor="middle" x="607.5" y="-84" font-family="Times,serif" font-size="10.00">rate = 8.75</text>
<text text-anchor="middle" x="607.5" y="-72.75" font-family="Times,serif" font-size="10.00">shipped = 45000.0</text>
</g>
<!-- Current Supplier&#45;&gt;Grace -->
<g id="edge10" class="edge">
<title>Current Supplier&#45;&gt;Grace</title>
<path fill="none" stroke="black" d="M663.56,-123.38C686.17,-116.12 712.86,-106.06 735.25,-93.5 740.13,-90.76 759.14,-75.51 777.63,-60.36"/>
<polygon fill="black" stroke="black" points="779.64,-63.23 785.15,-54.18 775.2,-57.83 779.64,-63.23"/>
<text text-anchor="middle" x="802.5" y="-84" font-family="Times,serif" font-size="10.00">rate = 8.75</text>
<text text-anchor="middle" x="802.5" y="-72.75" font-family="Times,serif" font-size="10.00">shipped = 20000.0</text>
</g>
</g>
</svg>