<?xml version="1.0" encoding="UTF-8" standalone="no"?>
<!DOCTYPE svg PUBLIC "-//W3C//DTD SVG 1.1//EN"
 "http://www.w3.org/Graphics/SVG/1.1/DTD/svg11.dtd">
<!-- Generated by graphviz version 2.40.1 (20161225.0304)
 -->
<!-- Title: %3 Pages: 1 -->
<svg width="755pt" height="652pt"
 viewBox="0.00 0.00 755.00 652.00" xmlns="http://www.w3.org/2000/svg" xmlns:xlink="http://www.w3.org/1999/xlink">
<g id="graph0" class="graph" transform="scale(1 1) rotate(0) translate(4 648)">
<title>%3</title>
<polygon fill="#ffffff" stroke="transparent" points="-4,4 -4,-648 751,-648 751,4 -4,4"/>
<text text-anchor="middle" x="373.5" y="-628" font-family="Times,serif" font-size="15.00" fill="#000000">Binance US </text>
<text text-anchor="middle" x="373.5" y="-611" font-family="Times,serif" font-size="15.00" fill="#000000">Best Bid/Ask Order Book</text>
<text text-anchor="middle" x="373.5" y="-594" font-family="Times,serif" font-size="15.00" fill="#000000">2022&#45;03&#45;28 21:29:07.198000 &#45; 2022&#45;03&#45;28 21:29:08.383000</text>
<text text-anchor="middle" x="373.5" y="-577" font-family="Times,serif" font-size="15.00" fill="#000000">Currencies trading on 4 or more base currencies</text>
<text text-anchor="middle" x="373.5" y="-560" font-family="Times,serif" font-size="15.00" fill="#000000">Edges labeled with log base 10 of conversion</text>
<text text-anchor="middle" x="373.5" y="-543" font-family="Times,serif" font-size="15.00" fill="#000000"> </text>
<!-- ETH -->
<g id="node1" class="node">
<title>ETH</title>
<ellipse fill="#add8e6" stroke="#000000" cx="378" cy="-433" rx="27" ry="18"/>
<text text-anchor="middle" x="378" y="-430.5" font-family="Times,serif" font-size="10.00" fill="#000000">ETH</text>
</g>
<!-- BTC -->
<g id="node2" class="node">
<title>BTC</title>
<ellipse fill="#ffd700" stroke="#000000" cx="292" cy="-350" rx="27" ry="18"/>
<text text-anchor="middle" x="292" y="-347.5" font-family="Times,serif" font-size="10.00" fill="#000000">BTC</text>
</g>
<!-- ETH&#45;&gt;BTC -->
<g id="edge5" class="edge">
<title>ETH&#45;&gt;BTC</title>
<path fill="none" stroke="#000000" d="M362.6249,-418.1613C349.3771,-405.3756 330.0627,-386.7349 314.9793,-372.1777"/>
<polygon fill="#000000" stroke="#000000" points="317.158,-369.4162 307.5319,-364.9901 312.2968,-374.453 317.158,-369.4162"/>
<text text-anchor="middle" x="358.5" y="-389" font-family="Times,serif" font-size="10.00" fill="#000000">&#45;1.14901</text>
</g>
<!-- BUSD -->
<g id="node3" class="node">
<title>BUSD</title>
<ellipse fill="#ffd700" stroke="#000000" cx="347" cy="-267" rx="27" ry="18"/>
<text text-anchor="middle" x="347" y="-264.5" font-family="Times,serif" font-size="10.00" fill="#000000">BUSD</text>
</g>
<!-- ETH&#45;&gt;BUSD -->
<g id="edge6" class="edge">
<title>ETH&#45;&gt;BUSD</title>
<path fill="none" stroke="#000000" d="M380.5391,-415.0743C383.4468,-389.3483 386.1521,-340.8853 372,-303 370.5022,-298.9904 368.4556,-295.0048 366.1738,-291.2262"/>
<polygon fill="#000000" stroke="#000000" points="369.0469,-289.2265 360.5698,-282.8712 363.2335,-293.1257 369.0469,-289.2265"/>
<text text-anchor="middle" x="399" y="-347.5" font-family="Times,serif" font-size="10.00" fill="#000000">3.53059</text>
</g>
<!-- USDC -->
<g id="node4" class="node">
<title>USDC</title>
<ellipse fill="#ffd700" stroke="#000000" cx="255" cy="-101" rx="27" ry="18"/>
<text text-anchor="middle" x="255" y="-98.5" font-family="Times,serif" font-size="10.00" fill="#000000">USDC</text>
</g>
<!-- ETH&#45;&gt;USDC -->
<g id="edge7" class="edge">
<title>ETH&#45;&gt;USDC</title>
<path fill="none" stroke="#000000" d="M352.6876,-426.5034C332.5658,-420.6525 304.2086,-410.8361 282,-397 246.241,-374.722 243.8244,-360.7205 213,-332 190.4481,-310.9873 174.3742,-313.2312 162,-285 134.4001,-222.0321 158.2522,-185.4806 207,-137 213.0241,-131.0089 220.082,-125.1811 226.9035,-120.0206"/>
<polygon fill="#000000" stroke="#000000" points="229.3061,-122.6002 235.3219,-113.8789 225.1805,-116.9452 229.3061,-122.6002"/>
<text text-anchor="middle" x="179" y="-264.5" font-family="Times,serif" font-size="10.00" fill="#000000">3.53077</text>
</g>
<!-- USDT -->
<g id="node5" class="node">
<title>USDT</title>
<ellipse fill="#ffd700" stroke="#000000" cx="522" cy="-184" rx="27" ry="18"/>
<text text-anchor="middle" x="522" y="-181.5" font-family="Times,serif" font-size="10.00" fill="#000000">USDT</text>
</g>
<!-- ETH&#45;&gt;USDT -->
<g id="edge8" class="edge">
<title>ETH&#45;&gt;USDT</title>
<path fill="none" stroke="#000000" d="M404.9947,-430.8218C448.5885,-426.7667 531.7596,-416.6333 553,-397 610.8014,-343.5719 597.1728,-288.836 559,-220 555.9928,-214.5771 551.9084,-209.4559 547.5489,-204.8695"/>
<polygon fill="#000000" stroke="#000000" points="549.7267,-202.1079 540.0938,-197.6967 544.8734,-207.1522 549.7267,-202.1079"/>
<text text-anchor="middle" x="608" y="-306" font-family="Times,serif" font-size="10.00" fill="#000000">3.53059</text>
</g>
<!-- USD&#45;DST -->
<g id="node7" class="node">
<title>USD&#45;DST</title>
<ellipse fill="#ffd700" stroke="#000000" cx="410" cy="-18" rx="32.9303" ry="18"/>
<text text-anchor="middle" x="410" y="-15.5" font-family="Times,serif" font-size="10.00" fill="#000000">USD&#45;DST</text>
</g>
<!-- ETH&#45;&gt;USD&#45;DST -->
<g id="edge23" class="edge">
<title>ETH&#45;&gt;USD&#45;DST</title>
<path fill="none" stroke="#000000" d="M404.6116,-429.6361C467.8359,-421.2391 624.9817,-397.8677 668,-368 695.235,-349.0907 713,-341.6558 713,-308.5 713,-308.5 713,-308.5 713,-101 713,-47.7797 536.9182,-27.4673 453.2151,-20.8181"/>
<polygon fill="#000000" stroke="#000000" points="453.2406,-17.3099 443.0031,-20.0384 452.7076,-24.2896 453.2406,-17.3099"/>
<text text-anchor="middle" x="730" y="-223" font-family="Times,serif" font-size="10.00" fill="#000000">3.53076</text>
</g>
<!-- BTC&#45;&gt;ETH -->
<g id="edge15" class="edge">
<title>BTC&#45;&gt;ETH</title>
<path fill="none" stroke="#ff0000" d="M286.9908,-367.8903C285.4348,-377.2962 285.3759,-388.5862 291,-397 302.2669,-413.8555 323.0384,-422.8287 341.4598,-427.6008"/>
<polygon fill="#ff0000" stroke="#ff0000" points="340.8512,-431.0515 351.3769,-429.8432 342.395,-424.2239 340.8512,-431.0515"/>
<text text-anchor="middle" x="308" y="-389" font-family="Times,serif" font-size="10.00" fill="#ff0000">1.14859</text>
</g>
<!-- BTC&#45;&gt;BUSD -->
<g id="edge1" class="edge">
<title>BTC&#45;&gt;BUSD</title>
<path fill="none" stroke="#000000" d="M287.543,-332.0324C286.2321,-322.8234 286.2287,-311.7395 291,-303 296.2044,-293.4674 305.1333,-286.0824 314.3513,-280.5528"/>
<polygon fill="#000000" stroke="#000000" points="316.0178,-283.6307 323.1656,-275.8103 312.701,-277.4664 316.0178,-283.6307"/>
<text text-anchor="middle" x="308" y="-306" font-family="Times,serif" font-size="10.00" fill="#000000">4.67947</text>
</g>
<!-- BTC&#45;&gt;USDC -->
<g id="edge2" class="edge">
<title>BTC&#45;&gt;USDC</title>
<path fill="none" stroke="#000000" d="M271.8822,-337.9813C262.3737,-331.6492 251.3135,-323.2758 243,-314 214.5589,-282.2667 206.044,-272.1574 195,-231 186.6706,-199.9591 184.7548,-193.1325 218,-137 221.1599,-131.6647 225.3144,-126.5837 229.695,-122.0093"/>
<polygon fill="#000000" stroke="#000000" points="232.3706,-124.2917 237.1452,-114.8337 227.5146,-119.25 232.3706,-124.2917"/>
<text text-anchor="middle" x="212" y="-223" font-family="Times,serif" font-size="10.00" fill="#000000">4.67945</text>
</g>
<!-- BTC&#45;&gt;USDT -->
<g id="edge3" class="edge">
<title>BTC&#45;&gt;USDT</title>
<path fill="none" stroke="#000000" d="M318.2163,-344.5456C342.7443,-338.86 379.9996,-328.7096 410,-314 460.6426,-289.1693 475.9755,-278.7469 506,-231 509.6736,-225.158 512.6144,-218.3731 514.9213,-211.8064"/>
<polygon fill="#000000" stroke="#000000" points="518.3956,-212.4228 518.0391,-201.834 511.7146,-210.334 518.3956,-212.4228"/>
<text text-anchor="middle" x="510" y="-264.5" font-family="Times,serif" font-size="10.00" fill="#000000">4.67936</text>
</g>
<!-- BTC&#45;&gt;USD&#45;DST -->
<g id="edge21" class="edge">
<title>BTC&#45;&gt;USD&#45;DST</title>
<path fill="none" stroke="#000000" d="M266.3907,-344.0617C233.33,-335.4176 175.2731,-316.827 135,-285 103.9554,-260.4661 12.6445,-168.9406 36,-137 75.9926,-82.3068 279.5604,-40.7738 368.4179,-24.9616"/>
<polygon fill="#000000" stroke="#000000" points="369.1723,-28.3827 378.4158,-23.2051 367.961,-21.4883 369.1723,-28.3827"/>
<text text-anchor="middle" x="73" y="-181.5" font-family="Times,serif" font-size="10.00" fill="#000000">4.67955</text>
</g>
<!-- BUSD&#45;&gt;ETH -->
<g id="edge16" class="edge">
<title>BUSD&#45;&gt;ETH</title>
<path fill="none" stroke="#ff0000" d="M367.7822,-278.595C385.3743,-289.7199 409.374,-308.3106 420,-332 431.8176,-358.346 414.7806,-389.0259 398.9963,-409.5973"/>
<polygon fill="#ff0000" stroke="#ff0000" points="396.1843,-407.5086 392.6222,-417.4867 401.6292,-411.9078 396.1843,-407.5086"/>
<text text-anchor="middle" x="441.5" y="-347.5" font-family="Times,serif" font-size="10.00" fill="#ff0000">&#45;3.53088</text>
</g>
<!-- BUSD&#45;&gt;BTC -->
<g id="edge11" class="edge">
<title>BUSD&#45;&gt;BTC</title>
<path fill="none" stroke="#ff0000" d="M340.2526,-284.6433C336.3971,-293.7635 331.114,-304.8659 325,-314 321.8755,-318.6678 318.1581,-323.3307 314.3639,-327.6785"/>
<polygon fill="#ff0000" stroke="#ff0000" points="311.7404,-325.3609 307.563,-335.0974 316.9004,-330.0911 311.7404,-325.3609"/>
<text text-anchor="middle" x="349.5" y="-306" font-family="Times,serif" font-size="10.00" fill="#ff0000">&#45;4.67971</text>
</g>
<!-- BUSD&#45;&gt;USDC -->
<g id="edge19" class="edge">
<title>BUSD&#45;&gt;USDC</title>
<path fill="none" stroke="#ff0000" d="M327.9258,-254.0521C312.1277,-242.3096 290.3386,-223.5711 278,-202 265.1673,-179.565 259.4943,-150.4877 256.9865,-129.2971"/>
<polygon fill="#ff0000" stroke="#ff0000" points="260.4637,-128.8953 255.9672,-119.302 253.4999,-129.6055 260.4637,-128.8953"/>
<text text-anchor="middle" x="295" y="-181.5" font-family="Times,serif" font-size="10.00" fill="#ff0000">0.00000</text>
</g>
<!-- BUSD&#45;&gt;USDT -->
<g id="edge4" class="edge">
<title>BUSD&#45;&gt;USDT</title>
<path fill="none" stroke="#000000" d="M357.645,-249.9157C364.7795,-239.8104 375.0405,-227.5505 387,-220 403.3574,-209.673 451.7373,-198.2396 485.8868,-191.0874"/>
<polygon fill="#000000" stroke="#000000" points="486.8876,-194.4549 495.9769,-189.0111 485.4767,-187.5985 486.8876,-194.4549"/>
<text text-anchor="middle" x="405.5" y="-223" font-family="Times,serif" font-size="10.00" fill="#000000">&#45;0.00022</text>
</g>
<!-- BUSD&#45;&gt;USD&#45;DST -->
<g id="edge22" class="edge">
<title>BUSD&#45;&gt;USD&#45;DST</title>
<path fill="none" stroke="#000000" d="M354.5816,-249.6114C360.0028,-236.6713 367.166,-218.4741 372,-202 387.9654,-147.5899 399.7706,-82.2285 405.7036,-45.8788"/>
<polygon fill="#000000" stroke="#000000" points="409.16,-46.4288 407.2872,-36.0008 402.2483,-45.3206 409.16,-46.4288"/>
<text text-anchor="middle" x="406.5" y="-140" font-family="Times,serif" font-size="10.00" fill="#000000">&#45;0.00004</text>
</g>
<!-- USDC&#45;&gt;ETH -->
<g id="edge17" class="edge">
<title>USDC&#45;&gt;ETH</title>
<path fill="none" stroke="#ff0000" d="M231.9085,-110.7687C209.1673,-121.4135 174.7647,-140.4055 153,-166 116.5699,-208.8406 85.7291,-234.2714 110,-285 146.2167,-360.6963 185.299,-362.9627 262,-397 288.1914,-408.6228 319.2624,-418.0502 342.6527,-424.3378"/>
<polygon fill="#ff0000" stroke="#ff0000" points="341.9304,-427.7668 352.4914,-426.9199 343.7074,-420.996 341.9304,-427.7668"/>
<text text-anchor="middle" x="128.5" y="-264.5" font-family="Times,serif" font-size="10.00" fill="#ff0000">&#45;3.53102</text>
</g>
<!-- USDC&#45;&gt;BTC -->
<g id="edge12" class="edge">
<title>USDC&#45;&gt;BTC</title>
<path fill="none" stroke="#ff0000" d="M251.9371,-119.2418C248.2245,-144.5351 243.2505,-191.5964 250,-231 255.6316,-263.8772 269.4201,-299.7388 279.6713,-323.4063"/>
<polygon fill="#ff0000" stroke="#ff0000" points="276.5638,-325.0331 283.814,-332.7587 282.964,-322.198 276.5638,-325.0331"/>
<text text-anchor="middle" x="268.5" y="-223" font-family="Times,serif" font-size="10.00" fill="#ff0000">&#45;4.67972</text>
</g>
<!-- USDC&#45;&gt;BUSD -->
<g id="edge9" class="edge">
<title>USDC&#45;&gt;BUSD</title>
<path fill="none" stroke="#000000" d="M270.8531,-115.7019C277.543,-122.0888 285.3145,-129.7544 292,-137 303.3453,-149.2957 308.0589,-151.2745 316,-166 328.5123,-189.2022 336.7461,-218.1853 341.5618,-239.1457"/>
<polygon fill="#000000" stroke="#000000" points="338.1638,-239.9912 343.714,-249.0159 345.0031,-238.4998 338.1638,-239.9912"/>
<text text-anchor="middle" x="349.5" y="-181.5" font-family="Times,serif" font-size="10.00" fill="#000000">&#45;0.00004</text>
</g>
<!-- USDC&#45;&gt;USDT -->
<g id="edge10" class="edge">
<title>USDC&#45;&gt;USDT</title>
<path fill="none" stroke="#000000" d="M282.0635,-101.4736C339.5318,-103.0111 471.2514,-109.5198 505,-137 510.9212,-141.8214 514.7803,-148.8818 517.2954,-156.0721"/>
<polygon fill="#000000" stroke="#000000" points="513.9331,-157.0457 519.9595,-165.7597 520.6826,-155.1896 513.9331,-157.0457"/>
<text text-anchor="middle" x="531.5" y="-140" font-family="Times,serif" font-size="10.00" fill="#000000">&#45;0.00022</text>
</g>
<!-- USDC&#45;&gt;USD&#45;DST -->
<g id="edge24" class="edge">
<title>USDC&#45;&gt;USD&#45;DST</title>
<path fill="none" stroke="#000000" d="M276.2271,-89.6332C302.3001,-75.6716 346.8094,-51.8376 377.2722,-35.5252"/>
<polygon fill="#000000" stroke="#000000" points="379.0759,-38.5297 386.2393,-30.7235 375.7714,-32.3587 379.0759,-38.5297"/>
<text text-anchor="middle" x="359.5" y="-57" font-family="Times,serif" font-size="10.00" fill="#000000">&#45;0.00004</text>
</g>
<!-- USDT&#45;&gt;ETH -->
<g id="edge18" class="edge">
<title>USDT&#45;&gt;ETH</title>
<path fill="none" stroke="#ff0000" d="M527.9513,-201.7132C533.8965,-222.3311 540.8508,-257.1137 531,-285 509.462,-345.9711 445.8912,-392.7352 407.807,-416.2299"/>
<polygon fill="#ff0000" stroke="#ff0000" points="405.9359,-413.271 399.1737,-421.4272 409.5462,-419.2681 405.9359,-413.271"/>
<text text-anchor="middle" x="541.5" y="-306" font-family="Times,serif" font-size="10.00" fill="#ff0000">&#45;3.53071</text>
</g>
<!-- USDT&#45;&gt;BTC -->
<g id="edge13" class="edge">
<title>USDT&#45;&gt;BTC</title>
<path fill="none" stroke="#ff0000" d="M511.2739,-200.5306C503.8913,-210.6829 493.2312,-223.1944 481,-231 456.8123,-246.4359 442.4583,-232.4767 419,-249 389.8544,-269.5292 399.6349,-291.4784 372,-314 358.635,-324.8921 341.4467,-333.1907 326.4299,-339.0596"/>
<polygon fill="#ff0000" stroke="#ff0000" points="325.1036,-335.8183 316.9373,-342.5683 327.5305,-342.3842 325.1036,-335.8183"/>
<text text-anchor="middle" x="437.5" y="-264.5" font-family="Times,serif" font-size="10.00" fill="#ff0000">&#45;4.67956</text>
</g>
<!-- USDT&#45;&gt;BUSD -->
<g id="edge14" class="edge">
<title>USDT&#45;&gt;BUSD</title>
<path fill="none" stroke="#ff0000" d="M499.6391,-194.7384C473.0512,-207.5045 431.3332,-227.5274 424,-231 409.0458,-238.0815 392.4199,-245.8658 378.4554,-252.3788"/>
<polygon fill="#ff0000" stroke="#ff0000" points="376.8523,-249.2644 369.2662,-256.6604 379.8088,-255.6095 376.8523,-249.2644"/>
<text text-anchor="middle" x="462" y="-223" font-family="Times,serif" font-size="10.00" fill="#ff0000">0.00017</text>
</g>
<!-- USDT&#45;&gt;USDC -->
<g id="edge20" class="edge">
<title>USDT&#45;&gt;USDC</title>
<path fill="none" stroke="#ff0000" d="M502.8105,-171.2776C482.894,-158.1601 453.8415,-139.3002 448,-137 396.1789,-116.5939 331.8828,-107.571 292.1483,-103.7134"/>
<polygon fill="#ff0000" stroke="#ff0000" points="292.3873,-100.2208 282.1109,-102.7986 291.7519,-107.1919 292.3873,-100.2208"/>
<text text-anchor="middle" x="483" y="-140" font-family="Times,serif" font-size="10.00" fill="#ff0000">0.00017</text>
</g>
<!-- USDT&#45;&gt;USD&#45;DST -->
<g id="edge25" class="edge">
<title>USDT&#45;&gt;USD&#45;DST</title>
<path fill="none" stroke="#000000" d="M540.272,-170.7066C550.3306,-161.6515 559.7193,-149.1459 554,-137 531.4241,-89.0563 479.0025,-53.8351 444.0321,-34.6276"/>
<polygon fill="#000000" stroke="#000000" points="445.5789,-31.4858 435.1089,-29.8643 442.2825,-37.6611 445.5789,-31.4858"/>
<text text-anchor="middle" x="559" y="-98.5" font-family="Times,serif" font-size="10.00" fill="#000000">0.00017</text>
</g>
<!-- USD&#45;SRC -->
<g id="node6" class="node">
<title>USD&#45;SRC</title>
<ellipse fill="#add8e6" stroke="#000000" cx="233" cy="-516" rx="33.6077" ry="18"/>
<text text-anchor="middle" x="233" y="-513.5" font-family="Times,serif" font-size="10.00" fill="#000000">USD&#45;SRC</text>
</g>
<!-- USD&#45;SRC&#45;&gt;ETH -->
<g id="edge28" class="edge">
<title>USD&#45;SRC&#45;&gt;ETH</title>
<path fill="none" stroke="#ff0000" d="M255.9757,-502.8484C281.0865,-488.4746 321.3805,-465.4098 348.7359,-449.7512"/>
<polygon fill="#ff0000" stroke="#ff0000" points="350.5362,-452.7535 357.4762,-444.7481 347.0587,-446.6784 350.5362,-452.7535"/>
<text text-anchor="middle" x="332.5" y="-472" font-family="Times,serif" font-size="10.00" fill="#ff0000">&#45;3.53081</text>
</g>
<!-- USD&#45;SRC&#45;&gt;BTC -->
<g id="edge26" class="edge">
<title>USD&#45;SRC&#45;&gt;BTC</title>
<path fill="none" stroke="#ff0000" d="M239.314,-498.2351C249.6053,-469.2801 270.0664,-411.7114 282.2399,-377.4606"/>
<polygon fill="#ff0000" stroke="#ff0000" points="285.6802,-378.2319 285.7314,-367.6372 279.0844,-375.8876 285.6802,-378.2319"/>
<text text-anchor="middle" x="286.5" y="-430.5" font-family="Times,serif" font-size="10.00" fill="#ff0000">&#45;4.67957</text>
</g>
<!-- USD&#45;SRC&#45;&gt;BUSD -->
<g id="edge27" class="edge">
<title>USD&#45;SRC&#45;&gt;BUSD</title>
<path fill="none" stroke="#ff0000" d="M230.6781,-497.9843C227.1167,-463.1493 223.7586,-385.3008 256,-332 269.7682,-309.2387 294.8661,-292.2221 315.222,-281.3211"/>
<polygon fill="#ff0000" stroke="#ff0000" points="316.8696,-284.4097 324.1832,-276.7442 313.6856,-278.1757 316.8696,-284.4097"/>
<text text-anchor="middle" x="252" y="-389" font-family="Times,serif" font-size="10.00" fill="#ff0000">0.00000</text>
</g>
<!-- USD&#45;SRC&#45;&gt;USDC -->
<g id="edge29" class="edge">
<title>USD&#45;SRC&#45;&gt;USDC</title>
<path fill="none" stroke="#ff0000" d="M200.111,-511.3172C135.8844,-501.245 0,-474.9751 0,-433 0,-433 0,-433 0,-267 0,-163.9967 147.9401,-121.5985 218.4541,-107.2401"/>
<polygon fill="#ff0000" stroke="#ff0000" points="219.5266,-110.5969 228.671,-105.2461 218.1857,-103.7265 219.5266,-110.5969"/>
<text text-anchor="middle" x="17" y="-306" font-family="Times,serif" font-size="10.00" fill="#ff0000">0.00000</text>
</g>
<!-- USD&#45;SRC&#45;&gt;USDT -->
<g id="edge30" class="edge">
<title>USD&#45;SRC&#45;&gt;USDT</title>
<path fill="none" stroke="#ff0000" d="M266.3806,-513.6259C340.1533,-506.4149 516.9334,-477.9288 598,-368 616.9961,-342.2407 638.0766,-333.6922 629,-303 616.5195,-260.7978 605.8588,-251.3771 575,-220 568.1266,-213.0112 559.7049,-206.568 551.6153,-201.1229"/>
<polygon fill="#ff0000" stroke="#ff0000" points="553.3625,-198.0854 543.0566,-195.6277 549.5804,-203.9758 553.3625,-198.0854"/>
<text text-anchor="middle" x="645.5" y="-347.5" font-family="Times,serif" font-size="10.00" fill="#ff0000">&#45;0.00022</text>
</g>
</g>
</svg>
