<?xml version="1.0" encoding="UTF-8" standalone="no"?>
<!DOCTYPE svg PUBLIC "-//W3C//DTD SVG 1.1//EN"
 "http://www.w3.org/Graphics/SVG/1.1/DTD/svg11.dtd">
<!-- Generated by graphviz version 2.40.1 (20161225.0304)
 -->
<!-- Title: %3 Pages: 1 -->
<svg width="817pt" height="569pt"
 viewBox="0.00 0.00 817.00 569.00" xmlns="http://www.w3.org/2000/svg" xmlns:xlink="http://www.w3.org/1999/xlink">
<g id="graph0" class="graph" transform="scale(1 1) rotate(0) translate(4 565)">
<title>%3</title>
<polygon fill="#ffffff" stroke="transparent" points="-4,4 -4,-565 813,-565 813,4 -4,4"/>
<text text-anchor="middle" x="404.5" y="-545" font-family="Times,serif" font-size="15.00" fill="#000000">Binance US </text>
<text text-anchor="middle" x="404.5" y="-528" font-family="Times,serif" font-size="15.00" fill="#000000">Best Bid/Ask Order Book</text>
<text text-anchor="middle" x="404.5" y="-511" font-family="Times,serif" font-size="15.00" fill="#000000">2022&#45;03&#45;28 21:29:07.198000 &#45; 2022&#45;03&#45;28 21:29:08.383000</text>
<text text-anchor="middle" x="404.5" y="-494" font-family="Times,serif" font-size="15.00" fill="#000000">Currencies trading on {N} or more base currencies</text>
<text text-anchor="middle" x="404.5" y="-477" font-family="Times,serif" font-size="15.00" fill="#000000">Edges labeled with log base 10 of conversion</text>
<text text-anchor="middle" x="404.5" y="-460" font-family="Times,serif" font-size="15.00" fill="#000000"> </text>
<!-- ETH -->
<g id="node1" class="node">
<title>ETH</title>
<ellipse fill="#add8e6" stroke="#000000" cx="255" cy="-433" rx="27" ry="18"/>
<text text-anchor="middle" x="255" y="-430.5" font-family="Times,serif" font-size="10.00" fill="#000000">ETH</text>
</g>
<!-- BTC -->
<g id="node2" class="node">
<title>BTC</title>
<ellipse fill="#ffd700" stroke="#000000" cx="561" cy="-350" rx="27" ry="18"/>
<text text-anchor="middle" x="561" y="-347.5" font-family="Times,serif" font-size="10.00" fill="#000000">BTC</text>
</g>
<!-- ETH&#45;&gt;BTC -->
<g id="edge7" class="edge">
<title>ETH&#45;&gt;BTC</title>
<path fill="none" stroke="#000000" d="M281.948,-431.6779C340.687,-428.4218 478.2555,-418.6554 519,-397 528.8562,-391.7615 537.5259,-383.236 544.3898,-374.8746"/>
<polygon fill="#000000" stroke="#000000" points="547.3466,-376.7692 550.6289,-366.6956 541.781,-372.5236 547.3466,-376.7692"/>
<text text-anchor="middle" x="550.5" y="-389" font-family="Times,serif" font-size="10.00" fill="#000000">&#45;1.14901</text>
</g>
<!-- BUSD -->
<g id="node3" class="node">
<title>BUSD</title>
<ellipse fill="#ffd700" stroke="#000000" cx="355" cy="-18" rx="27" ry="18"/>
<text text-anchor="middle" x="355" y="-15.5" font-family="Times,serif" font-size="10.00" fill="#000000">BUSD</text>
</g>
<!-- ETH&#45;&gt;BUSD -->
<g id="edge8" class="edge">
<title>ETH&#45;&gt;BUSD</title>
<path fill="none" stroke="#000000" d="M228.1633,-430.6279C178.524,-425.8863 74.5508,-414.1957 43,-397 18.1403,-383.451 0,-378.3122 0,-350 0,-350 0,-350 0,-101 0,-72.6878 17.7879,-66.8814 43,-54 90.2052,-29.8819 245.688,-21.6328 317.7387,-19.0601"/>
<polygon fill="#000000" stroke="#000000" points="317.8655,-22.5579 327.7409,-18.7205 317.6279,-15.5619 317.8655,-22.5579"/>
<text text-anchor="middle" x="17" y="-223" font-family="Times,serif" font-size="10.00" fill="#000000">3.53059</text>
</g>
<!-- USD -->
<g id="node4" class="node">
<title>USD</title>
<ellipse fill="#ffd700" stroke="#000000" cx="355" cy="-101" rx="27" ry="18"/>
<text text-anchor="middle" x="355" y="-98.5" font-family="Times,serif" font-size="10.00" fill="#000000">USD</text>
</g>
<!-- ETH&#45;&gt;USD -->
<g id="edge9" class="edge">
<title>ETH&#45;&gt;USD</title>
<path fill="none" stroke="#000000" d="M228.3806,-429.0568C207.2987,-424.6331 178.4261,-415.4899 160,-397 122.4733,-359.3434 127.4855,-337.3096 118,-285 109.9237,-240.462 129.7733,-140.317 133,-137 157.9373,-111.3641 260.8666,-103.9833 317.3959,-101.8586"/>
<polygon fill="#000000" stroke="#000000" points="317.8382,-105.3458 327.7142,-101.5098 317.6017,-98.3498 317.8382,-105.3458"/>
<text text-anchor="middle" x="135" y="-264.5" font-family="Times,serif" font-size="10.00" fill="#000000">3.53076</text>
</g>
<!-- USDC -->
<g id="node5" class="node">
<title>USDC</title>
<ellipse fill="#ffd700" stroke="#000000" cx="447" cy="-184" rx="27" ry="18"/>
<text text-anchor="middle" x="447" y="-181.5" font-family="Times,serif" font-size="10.00" fill="#000000">USDC</text>
</g>
<!-- ETH&#45;&gt;USDC -->
<g id="edge10" class="edge">
<title>ETH&#45;&gt;USDC</title>
<path fill="none" stroke="#000000" d="M270.2841,-417.9554C283.1516,-405.0625 301.8303,-385.8071 317,-368 330.8659,-351.7234 415.8119,-237.3715 420,-231 424.3354,-224.4044 428.7283,-217.0855 432.6756,-210.2252"/>
<polygon fill="#000000" stroke="#000000" points="435.8655,-211.6942 437.7348,-201.2656 429.7701,-208.2523 435.8655,-211.6942"/>
<text text-anchor="middle" x="383" y="-306" font-family="Times,serif" font-size="10.00" fill="#000000">3.53077</text>
</g>
<!-- USDT -->
<g id="node6" class="node">
<title>USDT</title>
<ellipse fill="#ffd700" stroke="#000000" cx="291" cy="-267" rx="27" ry="18"/>
<text text-anchor="middle" x="291" y="-264.5" font-family="Times,serif" font-size="10.00" fill="#000000">USDT</text>
</g>
<!-- ETH&#45;&gt;USDT -->
<g id="edge11" class="edge">
<title>ETH&#45;&gt;USDT</title>
<path fill="none" stroke="#000000" d="M245.6784,-415.7489C235.9056,-395.2704 223.3387,-360.3276 234,-332 240.4184,-314.9459 253.5687,-299.4484 265.6223,-287.8667"/>
<polygon fill="#000000" stroke="#000000" points="268.2844,-290.1752 273.303,-280.8444 263.561,-285.009 268.2844,-290.1752"/>
<text text-anchor="middle" x="251" y="-347.5" font-family="Times,serif" font-size="10.00" fill="#000000">3.53059</text>
</g>
<!-- BTC&#45;&gt;ETH -->
<g id="edge22" class="edge">
<title>BTC&#45;&gt;ETH</title>
<path fill="none" stroke="#ff0000" d="M538.295,-360.4091C511.3697,-372.627 468.0008,-391.8763 451,-397 396.7217,-413.3583 331.6283,-423.5245 291.8018,-428.7235"/>
<polygon fill="#ff0000" stroke="#ff0000" points="291.2353,-425.2673 281.7559,-429.9992 292.1172,-432.2115 291.2353,-425.2673"/>
<text text-anchor="middle" x="494" y="-389" font-family="Times,serif" font-size="10.00" fill="#ff0000">1.14859</text>
</g>
<!-- BTC&#45;&gt;BUSD -->
<g id="edge1" class="edge">
<title>BTC&#45;&gt;BUSD</title>
<path fill="none" stroke="#000000" d="M587.9742,-347.3953C619.882,-343.5045 673.969,-334.3262 716,-314 746.1814,-299.4043 775,-300.5254 775,-267 775,-267 775,-267 775,-101 775,-67.4746 747.0582,-66.6228 716,-54 657.9939,-30.4249 472.3373,-21.7543 392.2993,-19.0572"/>
<polygon fill="#000000" stroke="#000000" points="392.2867,-15.5551 382.1786,-18.7293 392.0599,-22.5514 392.2867,-15.5551"/>
<text text-anchor="middle" x="792" y="-181.5" font-family="Times,serif" font-size="10.00" fill="#000000">4.67947</text>
</g>
<!-- BTC&#45;&gt;USD -->
<g id="edge2" class="edge">
<title>BTC&#45;&gt;USD</title>
<path fill="none" stroke="#000000" d="M554.3217,-332.1713C549.9977,-322.5541 543.5654,-311.0428 535,-303 521.3766,-290.2079 507.9003,-300.1795 497,-285 465.938,-241.7437 504.4364,-214.7486 483,-166 476.15,-150.4225 472.066,-146.5775 458,-137 437.8162,-123.2569 411.8432,-114.2264 391.0289,-108.647"/>
<polygon fill="#000000" stroke="#000000" points="391.8262,-105.2385 381.2733,-106.1797 390.1098,-112.0248 391.8262,-105.2385"/>
<text text-anchor="middle" x="504" y="-223" font-family="Times,serif" font-size="10.00" fill="#000000">4.67955</text>
</g>
<!-- BTC&#45;&gt;USDC -->
<g id="edge3" class="edge">
<title>BTC&#45;&gt;USDC</title>
<path fill="none" stroke="#000000" d="M552.5879,-332.6741C548.0029,-323.6407 542.0419,-312.5201 536,-303 514.2078,-268.6623 485.5063,-231.4902 466.6681,-207.995"/>
<polygon fill="#000000" stroke="#000000" points="469.2096,-205.5712 460.2051,-199.9883 463.7627,-209.9679 469.2096,-205.5712"/>
<text text-anchor="middle" x="540" y="-264.5" font-family="Times,serif" font-size="10.00" fill="#000000">4.67945</text>
</g>
<!-- BTC&#45;&gt;USDT -->
<g id="edge4" class="edge">
<title>BTC&#45;&gt;USDT</title>
<path fill="none" stroke="#000000" d="M533.7596,-348.5343C479.1767,-345.1718 358.6701,-335.4811 324,-314 315.8717,-308.9638 309.2021,-301.1046 304.0391,-293.2444"/>
<polygon fill="#000000" stroke="#000000" points="306.9712,-291.3273 298.8525,-284.52 300.9541,-294.9043 306.9712,-291.3273"/>
<text text-anchor="middle" x="341" y="-306" font-family="Times,serif" font-size="10.00" fill="#000000">4.67936</text>
</g>
<!-- BUSD&#45;&gt;ETH -->
<g id="edge23" class="edge">
<title>BUSD&#45;&gt;ETH</title>
<path fill="none" stroke="#ff0000" d="M328.0289,-19.7295C254.6735,-25.1666 57,-45.0122 57,-101 57,-350 57,-350 57,-350 57,-384.7382 161.9711,-412.8924 219.0504,-425.6337"/>
<polygon fill="#ff0000" stroke="#ff0000" points="218.5984,-429.1174 229.115,-427.8315 220.0919,-422.2786 218.5984,-429.1174"/>
<text text-anchor="middle" x="75.5" y="-223" font-family="Times,serif" font-size="10.00" fill="#ff0000">&#45;3.53088</text>
</g>
<!-- BUSD&#45;&gt;BTC -->
<g id="edge16" class="edge">
<title>BUSD&#45;&gt;BTC</title>
<path fill="none" stroke="#ff0000" d="M382.2285,-18.694C464.0305,-21.5091 702,-35.341 702,-101 702,-267 702,-267 702,-267 702,-315.5472 639.1558,-336.2666 597.3783,-344.6768"/>
<polygon fill="#ff0000" stroke="#ff0000" points="596.71,-341.241 587.521,-346.5147 597.9932,-348.1224 596.71,-341.241"/>
<text text-anchor="middle" x="720.5" y="-181.5" font-family="Times,serif" font-size="10.00" fill="#ff0000">&#45;4.67971</text>
</g>
<!-- BUSD&#45;&gt;USD -->
<g id="edge5" class="edge">
<title>BUSD&#45;&gt;USD</title>
<path fill="none" stroke="#000000" d="M337.827,-32.4065C329.3974,-41.3089 321.8543,-53.2452 326,-65 327.5741,-69.4632 329.9617,-73.7804 332.7046,-77.782"/>
<polygon fill="#000000" stroke="#000000" points="330.1861,-80.2437 339.0987,-85.9722 335.7038,-75.936 330.1861,-80.2437"/>
<text text-anchor="middle" x="344.5" y="-57" font-family="Times,serif" font-size="10.00" fill="#000000">&#45;0.00004</text>
</g>
<!-- BUSD&#45;&gt;USDC -->
<g id="edge27" class="edge">
<title>BUSD&#45;&gt;USDC</title>
<path fill="none" stroke="#ff0000" d="M373.9977,-30.832C382.7449,-37.2316 392.9449,-45.427 401,-54 431.6427,-86.6128 444.7375,-94.2604 458,-137 459.9885,-143.408 459.6573,-150.4049 458.2628,-156.9955"/>
<polygon fill="#ff0000" stroke="#ff0000" points="454.8214,-156.2947 455.377,-166.8749 461.5406,-158.2575 454.8214,-156.2947"/>
<text text-anchor="middle" x="468" y="-98.5" font-family="Times,serif" font-size="10.00" fill="#ff0000">0.00000</text>
</g>
<!-- BUSD&#45;&gt;USDT -->
<g id="edge6" class="edge">
<title>BUSD&#45;&gt;USDT</title>
<path fill="none" stroke="#000000" d="M336.8559,-31.691C312.1436,-51.6388 269.1325,-91.331 253,-137 240.3192,-172.8975 258.879,-215.3884 274.2347,-241.7733"/>
<polygon fill="#000000" stroke="#000000" points="271.2914,-243.6695 279.4762,-250.3971 277.2732,-240.0338 271.2914,-243.6695"/>
<text text-anchor="middle" x="271.5" y="-140" font-family="Times,serif" font-size="10.00" fill="#000000">&#45;0.00022</text>
</g>
<!-- USD&#45;&gt;ETH -->
<g id="edge24" class="edge">
<title>USD&#45;&gt;ETH</title>
<path fill="none" stroke="#ff0000" d="M328.142,-103.6143C289.6489,-107.9789 221.7877,-118.1841 207,-137 143.3461,-217.9934 212.2975,-265.902 226,-368 227.7397,-380.9628 226.1564,-384.8509 231,-397 232.5213,-400.8158 234.4879,-404.6442 236.64,-408.3056"/>
<polygon fill="#ff0000" stroke="#ff0000" points="233.8618,-410.4555 242.2243,-416.961 239.7439,-406.6606 233.8618,-410.4555"/>
<text text-anchor="middle" x="221.5" y="-264.5" font-family="Times,serif" font-size="10.00" fill="#ff0000">&#45;3.53081</text>
</g>
<!-- USD&#45;&gt;BTC -->
<g id="edge17" class="edge">
<title>USD&#45;&gt;BTC</title>
<path fill="none" stroke="#ff0000" d="M380.1492,-107.7627C413.532,-116.831 469.2991,-132.3332 478,-137 546.101,-173.5267 578.4024,-178.9333 611,-249 623.807,-276.528 602.7167,-307.7933 584.1176,-328.1508"/>
<polygon fill="#ff0000" stroke="#ff0000" points="581.5754,-325.745 577.1871,-335.3884 586.6313,-330.5863 581.5754,-325.745"/>
<text text-anchor="middle" x="619.5" y="-223" font-family="Times,serif" font-size="10.00" fill="#ff0000">&#45;4.67957</text>
</g>
<!-- USD&#45;&gt;BUSD -->
<g id="edge20" class="edge">
<title>USD&#45;&gt;BUSD</title>
<path fill="none" stroke="#ff0000" d="M359.7673,-83.1838C361.0903,-77.4252 362.3433,-70.9824 363,-65 363.6827,-58.7804 363.2647,-52.1358 362.3365,-45.8595"/>
<polygon fill="#ff0000" stroke="#ff0000" points="365.7243,-44.9426 360.3969,-35.7847 358.8505,-46.266 365.7243,-44.9426"/>
<text text-anchor="middle" x="380" y="-57" font-family="Times,serif" font-size="10.00" fill="#ff0000">0.00000</text>
</g>
<!-- USD&#45;&gt;USDC -->
<g id="edge28" class="edge">
<title>USD&#45;&gt;USDC</title>
<path fill="none" stroke="#ff0000" d="M375.9944,-112.5335C386.7623,-118.9773 399.7346,-127.5942 410,-137 417.0442,-143.4543 423.8039,-151.3397 429.5739,-158.7939"/>
<polygon fill="#ff0000" stroke="#ff0000" points="427.0748,-161.2987 435.8505,-167.2349 432.6921,-157.1218 427.0748,-161.2987"/>
<text text-anchor="middle" x="437" y="-140" font-family="Times,serif" font-size="10.00" fill="#ff0000">0.00000</text>
</g>
<!-- USD&#45;&gt;USDT -->
<g id="edge30" class="edge">
<title>USD&#45;&gt;USDT</title>
<path fill="none" stroke="#ff0000" d="M349.1799,-118.8389C342.3084,-139.277 330.1414,-173.6067 317,-202 313.156,-210.3052 310.7117,-211.6348 307,-220 304.247,-226.2046 301.6737,-233.0394 299.43,-239.5296"/>
<polygon fill="#ff0000" stroke="#ff0000" points="296.0142,-238.7115 296.1971,-249.3047 302.6602,-240.9095 296.0142,-238.7115"/>
<text text-anchor="middle" x="349.5" y="-181.5" font-family="Times,serif" font-size="10.00" fill="#ff0000">&#45;0.00022</text>
</g>
<!-- USDC&#45;&gt;ETH -->
<g id="edge25" class="edge">
<title>USDC&#45;&gt;ETH</title>
<path fill="none" stroke="#ff0000" d="M444.3454,-202.2847C439.7756,-228.8796 428.4498,-278.8836 404,-314 372.358,-359.4464 318.4514,-396.3091 284.8856,-416.4022"/>
<polygon fill="#ff0000" stroke="#ff0000" points="282.848,-413.5396 275.9931,-421.618 286.3896,-419.5777 282.848,-413.5396"/>
<text text-anchor="middle" x="428.5" y="-306" font-family="Times,serif" font-size="10.00" fill="#ff0000">&#45;3.53102</text>
</g>
<!-- USDC&#45;&gt;BTC -->
<g id="edge18" class="edge">
<title>USDC&#45;&gt;BTC</title>
<path fill="none" stroke="#ff0000" d="M472.3186,-190.3272C499.7083,-198.6762 542.002,-216.2986 561,-249 573.8684,-271.1504 572.0494,-300.9124 568.1156,-322.3846"/>
<polygon fill="#ff0000" stroke="#ff0000" points="564.6861,-321.6858 566.0697,-332.1899 571.5385,-323.1156 564.6861,-321.6858"/>
<text text-anchor="middle" x="588.5" y="-264.5" font-family="Times,serif" font-size="10.00" fill="#ff0000">&#45;4.67972</text>
</g>
<!-- USDC&#45;&gt;BUSD -->
<g id="edge12" class="edge">
<title>USDC&#45;&gt;BUSD</title>
<path fill="none" stroke="#000000" d="M468.3476,-172.6731C486.2571,-161.7244 510.2699,-143.2416 519,-119 524.4212,-103.9464 524.4212,-98.0536 519,-83 513.3314,-67.2594 509.125,-62.9658 495,-54 463.6318,-34.0893 421.7237,-25.1678 391.9567,-21.1841"/>
<polygon fill="#000000" stroke="#000000" points="392.3203,-17.7027 381.9712,-19.9711 391.4761,-24.6516 392.3203,-17.7027"/>
<text text-anchor="middle" x="541.5" y="-98.5" font-family="Times,serif" font-size="10.00" fill="#000000">&#45;0.00004</text>
</g>
<!-- USDC&#45;&gt;USD -->
<g id="edge13" class="edge">
<title>USDC&#45;&gt;USD</title>
<path fill="none" stroke="#000000" d="M421.7663,-177.0045C405.898,-171.4522 386.0319,-162.2185 373,-148 368.0814,-142.6335 364.4578,-135.7822 361.8072,-128.9808"/>
<polygon fill="#000000" stroke="#000000" points="365.0456,-127.6257 358.5826,-119.2305 358.3996,-129.8237 365.0456,-127.6257"/>
<text text-anchor="middle" x="391.5" y="-140" font-family="Times,serif" font-size="10.00" fill="#000000">&#45;0.00004</text>
</g>
<!-- USDC&#45;&gt;USDT -->
<g id="edge14" class="edge">
<title>USDC&#45;&gt;USDT</title>
<path fill="none" stroke="#000000" d="M425.9495,-195.482C408.3579,-205.0509 382.5923,-219.0046 360,-231 347.4761,-237.6496 333.6247,-244.8972 321.6388,-251.135"/>
<polygon fill="#000000" stroke="#000000" points="319.7471,-248.1736 312.4874,-255.8904 322.9748,-254.3851 319.7471,-248.1736"/>
<text text-anchor="middle" x="397.5" y="-223" font-family="Times,serif" font-size="10.00" fill="#000000">&#45;0.00022</text>
</g>
<!-- USDT&#45;&gt;ETH -->
<g id="edge26" class="edge">
<title>USDT&#45;&gt;ETH</title>
<path fill="none" stroke="#ff0000" d="M287.0837,-285.0586C280.8111,-313.9822 268.4654,-370.9097 261.0515,-405.0959"/>
<polygon fill="#ff0000" stroke="#ff0000" points="257.6202,-404.4044 258.9212,-414.9191 264.4611,-405.8881 257.6202,-404.4044"/>
<text text-anchor="middle" x="294.5" y="-347.5" font-family="Times,serif" font-size="10.00" fill="#ff0000">&#45;3.53071</text>
</g>
<!-- USDT&#45;&gt;BTC -->
<g id="edge19" class="edge">
<title>USDT&#45;&gt;BTC</title>
<path fill="none" stroke="#ff0000" d="M317.8907,-269.6468C354.3564,-273.8184 421.1202,-283.5344 475,-303 480.9423,-305.1468 508.9409,-320.625 531.4005,-333.2416"/>
<polygon fill="#ff0000" stroke="#ff0000" points="529.8654,-336.3939 540.2962,-338.2512 533.3002,-330.2946 529.8654,-336.3939"/>
<text text-anchor="middle" x="513.5" y="-306" font-family="Times,serif" font-size="10.00" fill="#ff0000">&#45;4.67956</text>
</g>
<!-- USDT&#45;&gt;BUSD -->
<g id="edge21" class="edge">
<title>USDT&#45;&gt;BUSD</title>
<path fill="none" stroke="#ff0000" d="M272.9554,-253.4811C245.0616,-230.7997 196.3342,-183.0317 213,-137 231.4446,-86.0552 287.0965,-50.6312 323.0054,-32.3598"/>
<polygon fill="#ff0000" stroke="#ff0000" points="324.6925,-35.4304 332.1184,-27.8736 321.6008,-29.1502 324.6925,-35.4304"/>
<text text-anchor="middle" x="230" y="-140" font-family="Times,serif" font-size="10.00" fill="#ff0000">0.00017</text>
</g>
<!-- USDT&#45;&gt;USD -->
<g id="edge15" class="edge">
<title>USDT&#45;&gt;USD</title>
<path fill="none" stroke="#000000" d="M284.4996,-249.2668C277.9402,-228.3247 270.4262,-192.9363 283,-166 292.1354,-146.4295 310.188,-130.1542 325.9303,-118.7842"/>
<polygon fill="#000000" stroke="#000000" points="328.1105,-121.5327 334.3671,-112.9824 324.1441,-115.7649 328.1105,-121.5327"/>
<text text-anchor="middle" x="300" y="-181.5" font-family="Times,serif" font-size="10.00" fill="#000000">0.00017</text>
</g>
<!-- USDT&#45;&gt;USDC -->
<g id="edge29" class="edge">
<title>USDT&#45;&gt;USDC</title>
<path fill="none" stroke="#ff0000" d="M298.6969,-249.5217C303.9286,-239.5305 311.7627,-227.5281 322,-220 325.7362,-217.2526 376.1545,-203.2059 411.8015,-193.4935"/>
<polygon fill="#ff0000" stroke="#ff0000" points="413.1344,-196.7584 421.867,-190.7591 411.2992,-190.0032 413.1344,-196.7584"/>
<text text-anchor="middle" x="339" y="-223" font-family="Times,serif" font-size="10.00" fill="#ff0000">0.00017</text>
</g>
</g>
</svg>
