<?xml version="1.0" encoding="UTF-8" standalone="no"?>
<!DOCTYPE svg PUBLIC "-//W3C//DTD SVG 1.1//EN"
 "http://www.w3.org/Graphics/SVG/1.1/DTD/svg11.dtd">
<!-- Generated by graphviz version 2.40.1 (20161225.0304)
 -->
<!-- Title: Binance US Pages: 1 -->
<svg width="380pt" height="518pt"
 viewBox="0.00 0.00 380.00 518.00" xmlns="http://www.w3.org/2000/svg" xmlns:xlink="http://www.w3.org/1999/xlink">
<g id="graph0" class="graph" transform="scale(1 1) rotate(0) translate(4 514)">
<title>Binance US</title>
<polygon fill="#ffffff" stroke="transparent" points="-4,4 -4,-514 376,-514 376,4 -4,4"/>
<text text-anchor="middle" x="186" y="-494" font-family="Times,serif" font-size="15.00" fill="#000000">Binance US</text>
<text text-anchor="middle" x="186" y="-477" font-family="Times,serif" font-size="15.00" fill="#000000">trading symbols with 4 or more base currencies</text>
<text text-anchor="middle" x="186" y="-460" font-family="Times,serif" font-size="15.00" fill="#000000"> </text>
<!-- ETH -->
<g id="node1" class="node">
<title>ETH</title>
<ellipse fill="#add8e6" stroke="#000000" cx="119" cy="-433" rx="27" ry="18"/>
<text text-anchor="middle" x="119" y="-429.9" font-family="Times,serif" font-size="12.00" fill="#000000">ETH</text>
</g>
<!-- BTC -->
<g id="node2" class="node">
<title>BTC</title>
<ellipse fill="#ffd700" stroke="#000000" cx="212" cy="-350" rx="27" ry="18"/>
<text text-anchor="middle" x="212" y="-346.9" font-family="Times,serif" font-size="12.00" fill="#000000">BTC</text>
</g>
<!-- ETH&#45;&gt;BTC -->
<g id="edge7" class="edge">
<title>ETH&#45;&gt;BTC</title>
<path fill="none" stroke="#000000" d="M135.1994,-418.5425C149.779,-405.5305 171.3979,-386.2363 187.9873,-371.4307"/>
<polygon fill="#000000" stroke="#000000" points="190.5439,-373.8402 195.6742,-364.5703 185.8829,-368.6176 190.5439,-373.8402"/>
<text text-anchor="middle" x="192" y="-389" font-family="Times,serif" font-size="10.00" fill="#000000">ETH/BTC</text>
</g>
<!-- BUSD -->
<g id="node3" class="node">
<title>BUSD</title>
<ellipse fill="#ffd700" stroke="#000000" cx="89" cy="-184" rx="30.5603" ry="18"/>
<text text-anchor="middle" x="89" y="-180.9" font-family="Times,serif" font-size="12.00" fill="#000000">BUSD</text>
</g>
<!-- ETH&#45;&gt;BUSD -->
<g id="edge8" class="edge">
<title>ETH&#45;&gt;BUSD</title>
<path fill="none" stroke="#000000" d="M112.9562,-415.1185C105.4864,-392.0619 93.1344,-350.5755 88,-314 82.8704,-277.4587 86.4445,-267.8969 86,-231 85.9411,-226.1115 85.7968,-224.8847 86,-220 86.1012,-217.5679 86.2406,-215.0458 86.4044,-212.5168"/>
<polygon fill="#000000" stroke="#000000" points="89.9132,-212.5317 87.1791,-202.2957 82.9332,-212.0026 89.9132,-212.5317"/>
<text text-anchor="middle" x="112" y="-306" font-family="Times,serif" font-size="10.00" fill="#000000">ETH/BUSD</text>
</g>
<!-- USD -->
<g id="node4" class="node">
<title>USD</title>
<ellipse fill="#ffd700" stroke="#000000" cx="171" cy="-18" rx="27" ry="18"/>
<text text-anchor="middle" x="171" y="-14.9" font-family="Times,serif" font-size="12.00" fill="#000000">USD</text>
</g>
<!-- ETH&#45;&gt;USD -->
<g id="edge9" class="edge">
<title>ETH&#45;&gt;USD</title>
<path fill="none" stroke="#000000" d="M93.1788,-427.2274C58.1799,-417.7022 0,-395.0875 0,-350 0,-350 0,-350 0,-101 0,-71.0533 85.951,-41.8503 135.9797,-27.3888"/>
<polygon fill="#000000" stroke="#000000" points="137.1018,-30.7087 145.7684,-24.6143 135.1929,-23.974 137.1018,-30.7087"/>
<text text-anchor="middle" x="20.5" y="-223" font-family="Times,serif" font-size="10.00" fill="#000000">ETH/USD</text>
</g>
<!-- USDC -->
<g id="node5" class="node">
<title>USDC</title>
<ellipse fill="#ffd700" stroke="#000000" cx="200" cy="-267" rx="30.5603" ry="18"/>
<text text-anchor="middle" x="200" y="-263.9" font-family="Times,serif" font-size="12.00" fill="#000000">USDC</text>
</g>
<!-- ETH&#45;&gt;USDC -->
<g id="edge10" class="edge">
<title>ETH&#45;&gt;USDC</title>
<path fill="none" stroke="#000000" d="M116.7799,-414.7832C115.0488,-393.6923 114.7997,-358.4658 128,-332 137.386,-313.1816 154.747,-297.2559 170.0694,-285.8786"/>
<polygon fill="#000000" stroke="#000000" points="172.1756,-288.6757 178.3084,-280.0363 168.1266,-282.9655 172.1756,-288.6757"/>
<text text-anchor="middle" x="152" y="-347.5" font-family="Times,serif" font-size="10.00" fill="#000000">ETH/USDC</text>
</g>
<!-- USDT -->
<g id="node6" class="node">
<title>USDT</title>
<ellipse fill="#ffd700" stroke="#000000" cx="234" cy="-101" rx="30.3284" ry="18"/>
<text text-anchor="middle" x="234" y="-97.9" font-family="Times,serif" font-size="12.00" fill="#000000">USDT</text>
</g>
<!-- ETH&#45;&gt;USDT -->
<g id="edge11" class="edge">
<title>ETH&#45;&gt;USDT</title>
<path fill="none" stroke="#000000" d="M144.4136,-426.6961C164.9738,-420.9026 194.1593,-411.0686 217,-397 292.7786,-350.3246 312.2603,-318.4115 329,-231 337.8187,-184.9502 294.2995,-143.437 263.24,-120.284"/>
<polygon fill="#000000" stroke="#000000" points="265.024,-117.2557 254.8639,-114.2521 260.9334,-122.9361 265.024,-117.2557"/>
<text text-anchor="middle" x="348.5" y="-264.5" font-family="Times,serif" font-size="10.00" fill="#000000">ETH/USDT</text>
</g>
<!-- BTC&#45;&gt;BUSD -->
<g id="edge1" class="edge">
<title>BTC&#45;&gt;BUSD</title>
<path fill="none" stroke="#000000" d="M191.5285,-337.9766C163.5802,-321.3905 116.3205,-292.6659 111,-285 96.1193,-263.5593 91.0457,-233.8841 89.4391,-212.2496"/>
<polygon fill="#000000" stroke="#000000" points="92.9227,-211.8489 88.891,-202.0511 85.9328,-212.2246 92.9227,-211.8489"/>
<text text-anchor="middle" x="135.5" y="-264.5" font-family="Times,serif" font-size="10.00" fill="#000000">BTC/BUSD</text>
</g>
<!-- BTC&#45;&gt;USD -->
<g id="edge2" class="edge">
<title>BTC&#45;&gt;USD</title>
<path fill="none" stroke="#000000" d="M234.1211,-339.5187C271.0197,-320.3332 340.0646,-276.3114 329,-220 313.4951,-141.0902 316.8435,-107.7207 257,-54 242.8361,-41.2853 223.5384,-32.6555 206.8119,-27.0406"/>
<polygon fill="#000000" stroke="#000000" points="207.3867,-23.554 196.7984,-23.9246 205.3068,-30.2379 207.3867,-23.554"/>
<text text-anchor="middle" x="346" y="-181.5" font-family="Times,serif" font-size="10.00" fill="#000000">BTC/USD</text>
</g>
<!-- BTC&#45;&gt;USDC -->
<g id="edge3" class="edge">
<title>BTC&#45;&gt;USDC</title>
<path fill="none" stroke="#000000" d="M209.3962,-331.9902C207.8394,-321.2225 205.8278,-307.309 204.0655,-295.1199"/>
<polygon fill="#000000" stroke="#000000" points="207.4937,-294.3709 202.5987,-284.9746 200.5657,-295.3726 207.4937,-294.3709"/>
<text text-anchor="middle" x="230.5" y="-306" font-family="Times,serif" font-size="10.00" fill="#000000">BTC/USDC</text>
</g>
<!-- BTC&#45;&gt;USDT -->
<g id="edge4" class="edge">
<title>BTC&#45;&gt;USDT</title>
<path fill="none" stroke="#000000" d="M233.2713,-338.6371C242.6161,-332.5592 252.8435,-324.2103 259,-314 285.0708,-270.7629 273.7628,-252.3109 278,-202 279.3428,-186.0564 282.6906,-181.297 278,-166 273.403,-151.0082 264.0487,-136.361 255.1426,-124.7776"/>
<polygon fill="#000000" stroke="#000000" points="257.8121,-122.5122 248.8113,-116.9234 252.3623,-126.9054 257.8121,-122.5122"/>
<text text-anchor="middle" x="301" y="-223" font-family="Times,serif" font-size="10.00" fill="#000000">BTC/USDT</text>
</g>
<!-- BUSD&#45;&gt;USD -->
<g id="edge5" class="edge">
<title>BUSD&#45;&gt;USD</title>
<path fill="none" stroke="#000000" d="M85.0173,-165.9923C83.6871,-157.177 82.994,-146.4528 85,-137 90.4521,-111.3085 94.3879,-104.8235 109,-83 119.706,-67.0104 134.4953,-51.3338 146.9444,-39.3833"/>
<polygon fill="#000000" stroke="#000000" points="149.4339,-41.847 154.3359,-32.4544 144.6465,-36.74 149.4339,-41.847"/>
<text text-anchor="middle" x="133" y="-98.5" font-family="Times,serif" font-size="10.00" fill="#000000">BUSD/USD</text>
</g>
<!-- BUSD&#45;&gt;USDT -->
<g id="edge6" class="edge">
<title>BUSD&#45;&gt;USDT</title>
<path fill="none" stroke="#000000" d="M86.7701,-165.966C86.5882,-156.2846 88.1488,-144.7774 95,-137 108.0103,-122.231 157.859,-111.9844 194.1486,-106.3006"/>
<polygon fill="#000000" stroke="#000000" points="195.0824,-109.6996 204.4505,-104.7508 194.041,-102.7775 195.0824,-109.6996"/>
<text text-anchor="middle" x="122" y="-140" font-family="Times,serif" font-size="10.00" fill="#000000">BUSD/USDT</text>
</g>
<!-- USDC&#45;&gt;BUSD -->
<g id="edge12" class="edge">
<title>USDC&#45;&gt;BUSD</title>
<path fill="none" stroke="#000000" d="M174.5554,-256.7376C155.507,-248.7561 131.3587,-237.9119 123,-231 115.8597,-225.0956 109.4604,-217.365 104.1917,-209.8832"/>
<polygon fill="#000000" stroke="#000000" points="106.9805,-207.7549 98.5493,-201.3389 101.1393,-211.6123 106.9805,-207.7549"/>
<text text-anchor="middle" x="150.5" y="-223" font-family="Times,serif" font-size="10.00" fill="#000000">USDC/BUSD</text>
</g>
<!-- USDC&#45;&gt;USD -->
<g id="edge13" class="edge">
<title>USDC&#45;&gt;USD</title>
<path fill="none" stroke="#000000" d="M194.4578,-249.0808C187.6229,-225.9844 176.3733,-184.456 172,-148 167.8179,-113.1384 168.3493,-72.6404 169.4099,-46.2297"/>
<polygon fill="#000000" stroke="#000000" points="172.9095,-46.3159 169.8675,-36.1672 165.9168,-45.9978 172.9095,-46.3159"/>
<text text-anchor="middle" x="196" y="-140" font-family="Times,serif" font-size="10.00" fill="#000000">USDC/USD</text>
</g>
<!-- USDC&#45;&gt;USDT -->
<g id="edge14" class="edge">
<title>USDC&#45;&gt;USDT</title>
<path fill="none" stroke="#000000" d="M203.7033,-248.9191C209.6304,-219.9811 221.2905,-163.0522 228.2901,-128.8778"/>
<polygon fill="#000000" stroke="#000000" points="231.7234,-129.5576 230.3012,-119.0586 224.8658,-128.1529 231.7234,-129.5576"/>
<text text-anchor="middle" x="247" y="-181.5" font-family="Times,serif" font-size="10.00" fill="#000000">USDC/USDT</text>
</g>
<!-- USDT&#45;&gt;USD -->
<g id="edge15" class="edge">
<title>USDT&#45;&gt;USD</title>
<path fill="none" stroke="#000000" d="M221.5532,-84.6019C212.3474,-72.4735 199.6639,-55.7635 189.3045,-42.1155"/>
<polygon fill="#000000" stroke="#000000" points="192.0404,-39.9309 183.2065,-34.0816 186.4647,-44.1631 192.0404,-39.9309"/>
<text text-anchor="middle" x="229.5" y="-57" font-family="Times,serif" font-size="10.00" fill="#000000">USDT/USD</text>
</g>
</g>
</svg>
