<?xml version="1.0" encoding="UTF-8" standalone="no"?>
<!DOCTYPE svg PUBLIC "-//W3C//DTD SVG 1.1//EN"
 "http://www.w3.org/Graphics/SVG/1.1/DTD/svg11.dtd">
<!-- Generated by graphviz version 2.40.1 (20161225.0304)
 -->
<!-- Title: %3 Pages: 1 -->
<svg width="97pt" height="188pt"
 viewBox="0.00 0.00 96.79 188.00" xmlns="http://www.w3.org/2000/svg" xmlns:xlink="http://www.w3.org/1999/xlink">
<g id="graph0" class="graph" transform="scale(1 1) rotate(0) translate(4 184)">
<title>%3</title>
<polygon fill="#ffffff" stroke="transparent" points="-4,4 -4,-184 92.7947,-184 92.7947,4 -4,4"/>
<!-- USD -->
<g id="node1" class="node">
<title>USD</title>
<ellipse fill="none" stroke="#000000" cx="58.8973" cy="-162" rx="29.795" ry="18"/>
<text text-anchor="middle" x="58.8973" y="-158.3" font-family="Times,serif" font-size="14.00" fill="#000000">USD</text>
</g>
<!-- EUR -->
<g id="node2" class="node">
<title>EUR</title>
<ellipse fill="none" stroke="#000000" cx="29.8973" cy="-90" rx="29.795" ry="18"/>
<text text-anchor="middle" x="29.8973" y="-86.3" font-family="Times,serif" font-size="14.00" fill="#000000">EUR</text>
</g>
<!-- USD&#45;&gt;EUR -->
<g id="edge1" class="edge">
<title>USD&#45;&gt;EUR</title>
<path fill="none" stroke="#000000" d="M51.7288,-144.2022C48.4277,-136.0064 44.4386,-126.1024 40.7782,-117.0145"/>
<polygon fill="#000000" stroke="#000000" points="43.9662,-115.5612 36.9834,-107.593 37.473,-118.1766 43.9662,-115.5612"/>
</g>
<!-- JPY -->
<g id="node3" class="node">
<title>JPY</title>
<ellipse fill="none" stroke="#000000" cx="58.8973" cy="-18" rx="27" ry="18"/>
<text text-anchor="middle" x="58.8973" y="-14.3" font-family="Times,serif" font-size="14.00" fill="#000000">JPY</text>
</g>
<!-- EUR&#45;&gt;JPY -->
<g id="edge3" class="edge">
<title>EUR&#45;&gt;JPY</title>
<path fill="none" stroke="#000000" d="M37.0659,-72.2022C40.367,-64.0064 44.3561,-54.1024 48.0165,-45.0145"/>
<polygon fill="#000000" stroke="#000000" points="51.3216,-46.1766 51.8113,-35.593 44.8285,-43.5612 51.3216,-46.1766"/>
</g>
<!-- JPY&#45;&gt;USD -->
<g id="edge2" class="edge">
<title>JPY&#45;&gt;USD</title>
<path fill="none" stroke="#000000" d="M63.0605,-35.8853C65.2816,-46.3471 67.7816,-59.8471 68.8973,-72 70.3602,-87.933 70.3602,-92.067 68.8973,-108 68.1128,-116.545 66.6439,-125.756 65.0689,-134.1086"/>
<polygon fill="#000000" stroke="#000000" points="61.5969,-133.6214 63.0605,-144.1147 68.46,-134.999 61.5969,-133.6214"/>
</g>
</g>
</svg>
